<svg xmlns="http://www.w3.org/2000/svg" xmlns:xlink="http://www.w3.org/1999/xlink" width="600" height="580" fill="none" viewBox="0 0 600 580"><defs><path id="a" fill="#80AAB6" d="M540.7 464H539v-6.2c-.6.6-1.3 1-2.1 1.2v-1.5c.4 0 .9-.4 1.4-.7a3 3 0 0 0 1-1.4h1.4v8.6Zm8-1.5v1.5h-5.8c0-.6.3-1.1.6-1.6.3-.6.9-1.2 1.8-2.1l1.4-1.4c.2-.3.3-.7.3-1 0-.4 0-.7-.3-.9a1 1 0 0 0-.8-.3 1 1 0 0 0-.8.4c-.2.2-.3.5-.4 1l-1.6-.2c.1-.9.4-1.5 1-2a3 3 0 0 1 1.9-.5c.8 0 1.5.2 2 .7.4.4.7 1 .7 1.7 0 .4 0 .7-.2 1l-.7 1.2-1 1a18.9 18.9 0 0 0-1.4 1.5h3.3Zm1.8-3v-1.7h1.6v1.6h-1.6Zm0 4.5v-1.6h1.6v1.6h-1.6Zm3.2-2.3 1.6-.2c0 .4.2.7.4 1 .3.2.5.3.8.3.4 0 .7-.1.9-.4.2-.3.4-.6.4-1 0-.5-.2-.8-.4-1a1 1 0 0 0-.8-.4l-.7.1.1-1.3c.5 0 .8-.1 1-.3.3-.2.4-.5.4-.8 0-.3 0-.5-.3-.7a1 1 0 0 0-.6-.3 1 1 0 0 0-.8.3c-.2.2-.3.5-.3.9l-1.5-.3c0-.5.2-1 .4-1.2a2 2 0 0 1 1-.8 3 3 0 0 1 1.2-.2c.8 0 1.5.2 2 .7.4.5.6 1 .6 1.5 0 .7-.5 1.3-1.3 1.8.5 0 1 .3 1.2.7.3.4.4.8.4 1.3 0 .8-.2 1.4-.8 2-.5.5-1.2.7-2 .7s-1.5-.2-2-.6c-.5-.5-.8-1-.9-1.8Zm12.3.8v1.5h-5.7c0-.6.2-1.1.5-1.6.3-.6 1-1.2 1.9-2.1l1.3-1.4c.3-.3.4-.7.4-1 0-.4-.1-.7-.3-.9a1 1 0 0 0-.8-.3c-.4 0-.6.1-.9.4-.2.2-.3.5-.3 1l-1.6-.2c0-.9.4-1.5.9-2a3 3 0 0 1 2-.5c.8 0 1.4.2 2 .7.4.4.6 1 .6 1.7 0 .4 0 .7-.2 1l-.6 1.2-1.1 1a18 18 0 0 0-1.3 1.5h3.2Zm1.8-3v-1.7h1.7v1.6h-1.7Zm0 4.5v-1.6h1.7v1.6h-1.7Zm7.6 0h-1.7v-6.2c-.6.6-1.3 1-2.1 1.2v-1.5c.4 0 .9-.4 1.4-.7a3 3 0 0 0 1-1.4h1.4v8.6Zm8-1.5v1.5h-5.8c0-.6.3-1.1.6-1.6.3-.6 1-1.2 1.8-2.1l1.4-1.4c.2-.3.3-.7.3-1 0-.4 0-.7-.3-.9a1 1 0 0 0-.8-.3 1 1 0 0 0-.8.4c-.2.2-.3.5-.3 1l-1.7-.2c.1-.9.4-1.5 1-2a3 3 0 0 1 1.9-.5c.8 0 1.5.2 2 .7.4.4.7 1 .7 1.7 0 .4 0 .7-.2 1l-.7 1.2-1 1a18.9 18.9 0 0 0-1.4 1.5h3.3Z"/><path id="b" fill="#80AAB6" d="M540.7 525H539v-6.2c-.6.6-1.3 1-2.1 1.2v-1.5c.4 0 .9-.4 1.4-.7a3 3 0 0 0 1-1.4h1.4v8.6Zm8-1.5v1.5h-5.8c0-.6.3-1.1.6-1.6.3-.6.9-1.2 1.8-2.1l1.4-1.4c.2-.3.3-.7.3-1 0-.4 0-.7-.3-.9a1 1 0 0 0-.8-.3 1 1 0 0 0-.8.4c-.2.2-.3.5-.4 1l-1.6-.2c.1-.9.4-1.5 1-2a3 3 0 0 1 1.9-.5c.8 0 1.5.2 2 .7.4.4.7 1 .7 1.7 0 .4 0 .7-.2 1l-.7 1.2-1 1a18.9 18.9 0 0 0-1.4 1.5h3.3Zm1.8-3v-1.7h1.6v1.6h-1.6Zm0 4.5v-1.6h1.6v1.6h-1.6Zm3.2-2.3 1.6-.2c0 .4.2.7.4 1 .3.2.5.3.8.3.4 0 .7-.1.9-.4.2-.3.4-.6.4-1 0-.5-.2-.8-.4-1a1 1 0 0 0-.8-.4l-.7.1.1-1.3c.5 0 .8-.1 1-.3.3-.2.4-.5.4-.8 0-.3 0-.5-.3-.7a1 1 0 0 0-.6-.3 1 1 0 0 0-.8.3c-.2.2-.3.5-.3.9l-1.5-.3c0-.5.2-1 .4-1.2a2 2 0 0 1 1-.8 3 3 0 0 1 1.2-.2c.8 0 1.5.2 2 .7.4.5.6 1 .6 1.5 0 .7-.5 1.3-1.3 1.8.5 0 1 .3 1.2.7.3.4.4.8.4 1.3 0 .8-.2 1.4-.8 2-.5.5-1.2.7-2 .7s-1.5-.2-2-.6c-.5-.5-.8-1-.9-1.8Zm6.7 0 1.6-.2c0 .4.2.7.4 1 .2.2.5.3.8.3.4 0 .7-.1.9-.4.2-.3.3-.6.3-1 0-.5 0-.8-.3-1a1 1 0 0 0-.8-.4l-.8.1.2-1.3c.5 0 .8-.1 1-.3.3-.2.4-.5.4-.8a1 1 0 0 0-.3-.7 1 1 0 0 0-.7-.3 1 1 0 0 0-.7.3c-.2.2-.3.5-.3.9l-1.6-.3c.1-.5.3-1 .5-1.2.2-.3.5-.6.9-.8a3 3 0 0 1 1.3-.2c.8 0 1.4.2 2 .7.3.5.5 1 .5 1.5 0 .7-.4 1.3-1.2 1.8.5 0 .9.3 1.2.7.3.4.4.8.4 1.3a3 3 0 0 1-.8 2c-.6.5-1.2.7-2 .7s-1.5-.2-2-.6c-.5-.5-.8-1-.9-1.8Zm7.4-2.3v-1.6h1.7v1.6h-1.7Zm0 4.6v-1.6h1.7v1.6h-1.7Zm3.3-2.3 1.6-.2c0 .4.2.7.4 1a1.2 1.2 0 0 0 1.7-.1c.2-.3.3-.6.3-1 0-.5-.1-.8-.3-1a1 1 0 0 0-.8-.4l-.8.1.2-1.3c.4 0 .8-.1 1-.3.2-.2.4-.5.4-.8a1 1 0 0 0-.3-.7 1 1 0 0 0-.7-.3 1 1 0 0 0-.7.3c-.2.2-.3.5-.4.9l-1.5-.3c.1-.5.3-1 .5-1.2.2-.3.5-.6.9-.8a3 3 0 0 1 1.3-.2c.8 0 1.4.2 2 .7.3.5.5 1 .5 1.5 0 .7-.4 1.3-1.2 1.8.5 0 .9.3 1.2.7.3.4.4.8.4 1.3a3 3 0 0 1-.8 2 3 3 0 0 1-2 .7 3 3 0 0 1-2-.6c-.5-.5-.8-1-1-1.8Zm12.3.8v1.5h-5.8c0-.6.3-1.1.6-1.6.3-.6 1-1.2 1.8-2.1l1.4-1.4c.2-.3.3-.7.3-1 0-.4 0-.7-.3-.9a1 1 0 0 0-.8-.3 1 1 0 0 0-.8.4c-.2.2-.3.5-.3 1l-1.7-.2c.1-.9.4-1.5 1-2a3 3 0 0 1 1.9-.5c.8 0 1.5.2 2 .7.4.4.7 1 .7 1.7 0 .4 0 .7-.2 1l-.7 1.2-1 1a18.9 18.9 0 0 0-1.4 1.5h3.3Z"/><path id="c" fill="#80AAB6" d="M540.7 235H539v-6.2c-.6.6-1.3 1-2.1 1.2v-1.5c.4 0 .9-.4 1.4-.7a3 3 0 0 0 1-1.4h1.4v8.6Zm8-1.5v1.5h-5.8c0-.6.3-1.1.6-1.6.3-.6.9-1.2 1.8-2.1l1.4-1.4c.2-.3.3-.7.3-1 0-.4 0-.7-.3-.9a1 1 0 0 0-.8-.3 1 1 0 0 0-.8.4c-.2.2-.3.5-.4 1l-1.6-.2c.1-.9.4-1.5 1-2a3 3 0 0 1 1.9-.5c.8 0 1.5.2 2 .7.4.4.7 1 .7 1.7 0 .4 0 .7-.2 1l-.7 1.2-1 1a18.9 18.9 0 0 0-1.4 1.5h3.3Zm1.8-3v-1.7h1.6v1.6h-1.6Zm0 4.5v-1.6h1.6v1.6h-1.6Zm3.2-2.3 1.6-.2c0 .4.2.7.4 1 .3.2.5.3.8.3.4 0 .7-.1.9-.4.2-.3.4-.6.4-1 0-.5-.2-.8-.4-1a1 1 0 0 0-.8-.4l-.7.1.1-1.3c.5 0 .8-.1 1-.3.3-.2.4-.5.4-.8 0-.3 0-.5-.3-.7a1 1 0 0 0-.6-.3 1 1 0 0 0-.8.3c-.2.2-.3.5-.3.9l-1.5-.3c0-.5.2-1 .4-1.2a2 2 0 0 1 1-.8 3 3 0 0 1 1.2-.2c.8 0 1.5.2 2 .7.4.5.6 1 .6 1.5 0 .7-.5 1.3-1.3 1.8.5 0 1 .3 1.2.7.3.4.4.8.4 1.3 0 .8-.2 1.4-.8 2-.5.5-1.2.7-2 .7s-1.5-.2-2-.6c-.5-.5-.8-1-.9-1.8Zm10 2.3v-1.7h-3.5v-1.5l3.7-5.4h1.4v5.4h1v1.5h-1v1.7h-1.6Zm0-3.2v-3l-2 3h2Zm4.1-1.4v-1.6h1.7v1.6h-1.7Zm0 4.6v-1.6h1.7v1.6h-1.7Zm6.1-8.6c.9 0 1.5.3 2 .9.5.7.8 1.8.8 3.5 0 1.6-.3 2.8-.8 3.5-.5.6-1.1.8-2 .8-.8 0-1.5-.3-2-1-.5-.6-.8-1.7-.8-3.4 0-1.6.3-2.7.9-3.4.5-.6 1.1-1 2-1Zm0 1.3-.5.2-.4.7-.1 2.2.1 2c.1.4.2.7.4.8l.5.2c.2 0 .4 0 .6-.2l.3-.7.2-2.1c0-1 0-1.7-.2-2.1 0-.4-.2-.6-.3-.8a.8.8 0 0 0-.6-.2Zm8.1 7.3h-1.6v-6.2c-.6.6-1.3 1-2.1 1.2v-1.5c.4 0 .9-.4 1.4-.7a3 3 0 0 0 1-1.4h1.3v8.6Z"/><path id="d" fill="#80AAB6" d="M540.7 296H539v-6.2c-.6.6-1.3 1-2.1 1.2v-1.5c.4 0 .9-.4 1.4-.7a3 3 0 0 0 1-1.4h1.4v8.6Zm8-1.5v1.5h-5.8c0-.6.3-1.1.6-1.6.3-.6.9-1.2 1.8-2.1l1.4-1.4c.2-.3.3-.7.3-1 0-.4 0-.7-.3-.9a1 1 0 0 0-.8-.3 1 1 0 0 0-.8.4c-.2.2-.3.5-.4 1l-1.6-.2c.1-.9.4-1.5 1-2a3 3 0 0 1 1.9-.5c.8 0 1.5.2 2 .7.4.4.7 1 .7 1.7 0 .4 0 .7-.2 1l-.7 1.2-1 1a18.9 18.9 0 0 0-1.4 1.5h3.3Zm1.8-3v-1.7h1.6v1.6h-1.6Zm0 4.5v-1.6h1.6v1.6h-1.6Zm3.2-2.3 1.6-.2c0 .4.2.7.4 1 .3.2.5.3.8.3.4 0 .7-.1.9-.4.2-.3.4-.6.4-1 0-.5-.2-.8-.4-1a1 1 0 0 0-.8-.4l-.7.1.1-1.3c.5 0 .8-.1 1-.3.3-.2.4-.5.4-.8 0-.3 0-.5-.3-.7a1 1 0 0 0-.6-.3 1 1 0 0 0-.8.3c-.2.2-.3.5-.3.9l-1.5-.3c0-.5.2-1 .4-1.2a2 2 0 0 1 1-.8 3 3 0 0 1 1.2-.2c.8 0 1.5.2 2 .7.4.5.6 1 .6 1.5 0 .7-.5 1.3-1.3 1.8.5 0 1 .3 1.2.7.3.4.4.8.4 1.3 0 .8-.2 1.4-.8 2-.5.5-1.2.7-2 .7s-1.5-.2-2-.6c-.5-.5-.8-1-.9-1.8Zm6.8 0h1.6c0 .3.2.6.5.8a1.1 1.1 0 0 0 1.6 0c.3-.4.4-.8.4-1.4 0-.5-.1-.9-.4-1.1-.2-.3-.5-.4-.9-.4-.5 0-.9.2-1.3.6l-1.3-.2.8-4.5h4.4v1.6h-3.1l-.3 1.4a2.5 2.5 0 0 1 3 .5c.5.6.8 1.3.8 2.1 0 .7-.2 1.4-.6 2a3 3 0 0 1-2.4 1c-.8 0-1.4-.2-1.9-.6-.5-.4-.8-1-.9-1.7Zm7.3-2.3v-1.6h1.7v1.6h-1.7Zm0 4.6v-1.6h1.7v1.6h-1.7Zm9-1.5v1.5h-5.9c.1-.6.3-1.1.6-1.6.3-.6 1-1.2 1.9-2.1l1.3-1.4c.2-.3.4-.7.4-1 0-.4-.1-.7-.3-.9a1 1 0 0 0-.9-.3 1 1 0 0 0-.8.4c-.2.2-.3.5-.3 1l-1.7-.2c.1-.9.4-1.5 1-2a3 3 0 0 1 1.9-.5c.8 0 1.5.2 2 .7.5.4.7 1 .7 1.7 0 .4 0 .7-.2 1-.1.4-.4.8-.7 1.2l-1 1a18.6 18.6 0 0 0-1.4 1.5h3.3Zm5.2 1.5h-1.6v-6.2c-.6.6-1.3 1-2.1 1.2v-1.5c.4 0 .9-.4 1.4-.7a3 3 0 0 0 1-1.4h1.3v8.6Z"/><path id="f" fill="#80AAB6" d="M540.7 104H539v-6.2c-.6.6-1.3 1-2.1 1.2v-1.5c.4 0 .9-.4 1.4-.7a3 3 0 0 0 1-1.4h1.4v8.6Zm8-1.5v1.5h-5.8c0-.6.3-1.1.6-1.6.3-.6.9-1.2 1.8-2.1l1.4-1.4c.2-.3.3-.7.3-1 0-.4 0-.7-.3-.9a1 1 0 0 0-.8-.3 1 1 0 0 0-.8.4c-.2.2-.3.5-.4 1l-1.6-.2c.1-.9.4-1.5 1-2a3 3 0 0 1 1.9-.5c.8 0 1.5.2 2 .7.4.4.7 1 .7 1.7 0 .4 0 .7-.2 1l-.7 1.2-1 1a18.9 18.9 0 0 0-1.4 1.5h3.3Zm1.8-3v-1.7h1.6v1.6h-1.6Zm0 4.5v-1.6h1.6v1.6h-1.6Zm3.2-2.3 1.6-.2c0 .4.2.7.4 1 .3.2.5.3.8.3.4 0 .7-.1.9-.4.2-.3.4-.6.4-1 0-.5-.2-.8-.4-1a1 1 0 0 0-.8-.4l-.7.1.1-1.3c.5 0 .8-.1 1-.3.3-.2.4-.5.4-.8 0-.3 0-.5-.3-.7a1 1 0 0 0-.6-.3 1 1 0 0 0-.8.3c-.2.2-.3.5-.3.9l-1.5-.3c0-.5.2-1 .4-1.2a2 2 0 0 1 1-.8 3 3 0 0 1 1.2-.2c.8 0 1.5.2 2 .7.4.5.6 1 .6 1.5 0 .7-.5 1.3-1.3 1.8.5 0 1 .3 1.2.7.3.4.4.8.4 1.3 0 .8-.2 1.4-.8 2-.5.5-1.2.7-2 .7s-1.5-.2-2-.6c-.5-.5-.8-1-.9-1.8Zm12.3.8v1.5h-5.7c0-.6.2-1.1.5-1.6.3-.6 1-1.2 1.9-2.1l1.3-1.4c.3-.3.4-.7.4-1 0-.4-.1-.7-.3-.9a1 1 0 0 0-.8-.3c-.4 0-.6.1-.9.4-.2.2-.3.5-.3 1l-1.6-.2c0-.9.4-1.5.9-2a3 3 0 0 1 2-.5c.8 0 1.4.2 2 .7.4.4.6 1 .6 1.7 0 .4 0 .7-.2 1l-.6 1.2-1.1 1a18 18 0 0 0-1.3 1.5h3.2Zm1.8-3v-1.7h1.7v1.6h-1.7Zm0 4.5v-1.6h1.7v1.6h-1.7Zm7.6 0h-1.7v-6.2c-.6.6-1.3 1-2.1 1.2v-1.5c.4 0 .9-.4 1.4-.7a3 3 0 0 0 1-1.4h1.4v8.6Zm8-1.5v1.5h-5.8c0-.6.3-1.1.6-1.6.3-.6 1-1.2 1.8-2.1l1.4-1.4c.2-.3.3-.7.3-1 0-.4 0-.7-.3-.9a1 1 0 0 0-.8-.3 1 1 0 0 0-.8.4c-.2.2-.3.5-.3 1l-1.7-.2c.1-.9.4-1.5 1-2a3 3 0 0 1 1.9-.5c.8 0 1.5.2 2 .7.4.4.7 1 .7 1.7 0 .4 0 .7-.2 1l-.7 1.2-1 1a18.9 18.9 0 0 0-1.4 1.5h3.3Z"/><path id="g" fill="#80AAB6" d="M540.7 146H539v-6.2c-.6.6-1.3 1-2.1 1.2v-1.5c.4 0 .9-.4 1.4-.7a3 3 0 0 0 1-1.4h1.4v8.6Zm8-1.5v1.5h-5.8c0-.6.3-1.1.6-1.6.3-.6.9-1.2 1.8-2.1l1.4-1.4c.2-.3.3-.7.3-1 0-.4 0-.7-.3-.9a1 1 0 0 0-.8-.3 1 1 0 0 0-.8.4c-.2.2-.3.5-.4 1l-1.6-.2c.1-.9.4-1.5 1-2a3 3 0 0 1 1.9-.5c.8 0 1.5.2 2 .7.4.4.7 1 .7 1.7 0 .4 0 .7-.2 1l-.7 1.2-1 1a18.9 18.9 0 0 0-1.4 1.5h3.3Zm1.8-3v-1.7h1.6v1.6h-1.6Zm0 4.5v-1.6h1.6v1.6h-1.6Zm3.2-2.3 1.6-.2c0 .4.2.7.4 1 .3.2.5.3.8.3.4 0 .7-.1.9-.4.2-.3.4-.6.4-1 0-.5-.2-.8-.4-1a1 1 0 0 0-.8-.4l-.7.1.1-1.3c.5 0 .8-.1 1-.3.3-.2.4-.5.4-.8 0-.3 0-.5-.3-.7a1 1 0 0 0-.6-.3 1 1 0 0 0-.8.3c-.2.2-.3.5-.3.9l-1.5-.3c0-.5.2-1 .4-1.2a2 2 0 0 1 1-.8 3 3 0 0 1 1.2-.2c.8 0 1.5.2 2 .7.4.5.6 1 .6 1.5 0 .7-.5 1.3-1.3 1.8.5 0 1 .3 1.2.7.3.4.4.8.4 1.3 0 .8-.2 1.4-.8 2-.5.5-1.2.7-2 .7s-1.5-.2-2-.6c-.5-.5-.8-1-.9-1.8Zm12.3.8v1.5h-5.7c0-.6.2-1.1.5-1.6.3-.6 1-1.2 1.9-2.1l1.3-1.4c.3-.3.4-.7.4-1 0-.4-.1-.7-.3-.9a1 1 0 0 0-.8-.3c-.4 0-.6.1-.9.4-.2.2-.3.5-.3 1l-1.6-.2c0-.9.4-1.5.9-2a3 3 0 0 1 2-.5c.8 0 1.4.2 2 .7.4.4.6 1 .6 1.7 0 .4 0 .7-.2 1l-.6 1.2-1.1 1a18 18 0 0 0-1.3 1.5h3.2Zm1.8-3v-1.7h1.7v1.6h-1.7Zm0 4.5v-1.6h1.7v1.6h-1.7Zm7.6 0h-1.7v-6.2c-.6.6-1.3 1-2.1 1.2v-1.5c.4 0 .9-.4 1.4-.7a3 3 0 0 0 1-1.4h1.4v8.6Zm2.5-2.2 1.6-.2c0 .4.2.7.4 1a1.1 1.1 0 0 0 1.7-.2c.2-.3.3-.7.3-1.3 0-.5 0-.9-.3-1.1-.3-.3-.6-.4-1-.4s-.8.2-1.2.6l-1.3-.2.8-4.5h4.4v1.6H580l-.2 1.4a2.5 2.5 0 0 1 3 .5c.5.6.7 1.3.7 2.1 0 .7-.2 1.4-.6 2-.5.7-1.3 1-2.3 1-.8 0-1.5-.2-2-.6-.5-.4-.7-1-.8-1.7Z"/></defs><path fill="#fff" d="M0 0h600v580H0z"/><path fill="#D71414" d="M14 42V22h15v3.3H18.1v4.5h10v3.4h-10v5.4h11.2V42H14Zm29.6-20.5h2.6c0 1.1-.4 2-1 2.6-.4.6-1.7 1-3.8 1h-1.2a9 9 0 0 0-3 .3c-.8.3-1.4.8-1.9 1.6-.5.7-.7 2-.7 3.7a7 7 0 0 1 2.1-2.4c1-.5 2-.8 3.3-.8 1.9 0 3.5.8 4.8 2.3 1.3 1.4 2 3.2 2 5.1a7.3 7.3 0 0 1-7.6 7.4c-1.5 0-2.8-.3-4-1-1.2-.8-2-1.8-2.5-3.1s-.8-3.4-.8-6.4c0-3.5.7-6 2-7.5 1.2-1.5 3.5-2.3 6.7-2.3h1.9c.5 0 .9-.1 1-.5Zm-7.8 13.3a5 5 0 0 0 1 3.2c.7.8 1.5 1.1 2.5 1.1s1.8-.4 2.5-1.1c.7-.8 1-1.9 1-3.1 0-1.3-.3-2.4-1-3.1a3.1 3.1 0 0 0-2.5-1.2 3 3 0 0 0-2.4 1.1c-.7.8-1 1.8-1 3.1Zm17-2.9-3.4-.6c.4-1.4 1-2.5 2-3.1 1-.7 2.4-1 4.3-1a9 9 0 0 1 3.8.6c.8.4 1.4.9 1.8 1.5.3.6.5 1.8.5 3.4v4.5l.1 2.9c.1.6.4 1.2.7 1.9h-3.8a14.1 14.1 0 0 1-.5-1.6 7 7 0 0 1-2.1 1.4 6 6 0 0 1-2.4.5 5 5 0 0 1-3.5-1.2 4 4 0 0 1-1.3-3c0-.9.2-1.6.6-2.3.4-.6 1-1 1.6-1.4.7-.4 1.7-.7 3-1 1.9-.3 3.1-.6 3.8-.9v-.4c0-.7-.2-1.2-.5-1.5-.4-.3-1-.5-2.1-.5-.7 0-1.2.1-1.6.4-.4.3-.7.7-1 1.4ZM58 35l-2.3.6a7 7 0 0 0-2.1.7c-.5.3-.8.8-.8 1.3 0 .6.2 1 .6 1.4.4.4 1 .6 1.6.6.6 0 1.3-.2 2-.7.4-.3.7-.7.9-1.2l.1-2V35Zm7.4-7.5h3.9v5.3h5.5v-5.3h3.8V42h-3.8v-6.1h-5.5V42h-3.9V27.5Zm16.2 7c0-1.2.3-2.5 1-3.7a6.5 6.5 0 0 1 2.6-2.7 8 8 0 0 1 3.9-1 7.2 7.2 0 0 1 7.5 7.6c0 2.2-.7 4-2.1 5.5a7.2 7.2 0 0 1-5.4 2.1c-1.3 0-2.6-.3-3.8-.9a6.2 6.2 0 0 1-2.7-2.6c-.7-1.2-1-2.6-1-4.3Zm4 .2c0 1.5.3 2.6 1 3.3.7.8 1.5 1.2 2.5 1.2s1.9-.4 2.5-1.2c.7-.7 1-1.8 1-3.3 0-1.4-.3-2.5-1-3.3a3.2 3.2 0 0 0-2.5-1.1c-1 0-1.8.4-2.5 1.1-.7.8-1 1.9-1 3.3Zm14.8-3.4v-3.8h3.8v3.8h-3.8Zm0 10.7v-3.8h3.8V42h-3.8Z"/><path fill="#21D714" d="M13 382h16v20h-4v-16.7h-8V402h-4v-20Zm20 5.5h3.7v9.1l6-9.1h3.7V402h-3.7v-9.3l-6 9.3H33v-14.5Zm21.3 8.5v-2.5a6 6 0 0 0 1.4 0l.9-.7c.2-.4.4-.7.4-1.2a2 2 0 0 0-.5-1.2 2 2 0 0 0-1.5-.6c-.5 0-1 .1-1.4.3-.4.2-.8.8-1 1.6l-3.3-.7c.3-1.3 1-2.3 2-2.9a7 7 0 0 1 3.8-1c1.7 0 3 .5 4 1.3s1.5 1.8 1.5 3c0 .7-.2 1.4-.7 1.9-.4.5-1 1-2 1.3 1.2.3 2 .8 2.5 1.4.5.6.8 1.3.8 2.2 0 1.1-.5 2-1.6 3-1 .7-2.6 1.1-4.6 1.1-3.4 0-5.5-1.3-6.3-4l3.5-.7c.6 1.4 1.5 2.2 2.8 2.2.7 0 1.3-.2 1.7-.6.5-.4.7-.8.7-1.3 0-.6-.3-1-.7-1.4a3 3 0 0 0-1.8-.5h-.6Zm22 6h-11v3.8h-3.1v-7h1.5c.7-.7 1.2-1.8 1.7-3.4.4-1.5.7-4.2.7-8H78V399h1.5v7h-3.1v-4Zm-2.2-3.1v-8.3h-4.7c-.1 4-.8 6.8-1.9 8.3h6.6Zm10.8-7-3.5-.6a5.4 5.4 0 0 1 2-3.1c1-.7 2.4-1 4.3-1a9 9 0 0 1 3.9.6c.8.4 1.4.9 1.7 1.5.4.6.5 1.8.5 3.4v4.5c0 1.3 0 2.2.2 2.9.1.6.3 1.2.7 1.9h-3.8a14 14 0 0 1-.5-1.6 7 7 0 0 1-2.1 1.5 6 6 0 0 1-2.4.4 5 5 0 0 1-3.6-1.2 4 4 0 0 1-1.3-3c0-.9.2-1.6.6-2.3.4-.6 1-1 1.7-1.4.7-.4 1.7-.7 3-1 1.8-.3 3-.6 3.8-.9v-.4c0-.7-.2-1.2-.6-1.5-.3-.3-1-.5-2-.5-.7 0-1.3.1-1.6.4-.4.3-.7.7-1 1.4Zm5.2 3.1-2.4.6a7 7 0 0 0-2 .7c-.6.3-.8.8-.8 1.3 0 .6.2 1 .6 1.4.4.4.9.6 1.5.6a3 3 0 0 0 2-.7c.5-.3.8-.7 1-1.2V395Zm5.8-7.5h13.2v3h-4.7V402h-3.8v-11.4h-4.7v-3.1Zm14.2 7c0-1.2.3-2.5 1-3.7a6.5 6.5 0 0 1 2.6-2.7 8 8 0 0 1 3.9-1 7.2 7.2 0 0 1 7.5 7.6c0 2.2-.7 4-2.2 5.5a7.2 7.2 0 0 1-5.3 2.1c-1.3 0-2.6-.3-3.8-.9a6.2 6.2 0 0 1-2.8-2.6c-.6-1.2-1-2.6-1-4.3Zm4 .2c0 1.5.3 2.6 1 3.3.6.8 1.5 1.2 2.5 1.2s1.8-.4 2.5-1.2c.7-.7 1-1.8 1-3.3 0-1.4-.3-2.5-1-3.3a3.2 3.2 0 0 0-2.5-1.1c-1 0-1.9.4-2.5 1.1-.7.8-1 1.9-1 3.3Zm14.7-3.4v-3.8h3.9v3.8h-3.9Zm0 10.7v-3.8h3.9v3.8h-3.9Z"/><path fill="#F3FAFC" d="M0 423h600v137H0z"/><path fill="#82ACB7" d="M110.5 464v-9h-3.2v-1.7h8.6v1.8h-3.2v8.9h-2.2Zm6.6-7.8h2v3.3h2l2 .1c.4.1.7.4 1 .8.3.4.5.8.5 1.3 0 .8-.3 1.4-.8 1.7a4 4 0 0 1-2.3.6H117v-7.8Zm2 6.5h2c.4 0 .8 0 1-.2.2-.2.3-.4.3-.8s-.1-.6-.4-.8a4 4 0 0 0-1.6-.2h-1.3v2Zm6.6-6.5h2v7.8h-2v-7.8Zm-57.8 58.1h8v1.8H70v2.5h3c.7 0 1.4 0 2 .2.4.2.9.6 1.3 1.1.3.6.5 1.2.5 1.9a3 3 0 0 1-.5 1.9 3 3 0 0 1-1.3 1c-.5.2-1.2.3-2 .3h-5.1v-10.7Zm2.1 8.9h2.1l1.5-.1c.2 0 .5-.2.7-.5.2-.2.3-.5.3-.8 0-.5-.2-.9-.6-1.1-.3-.2-1-.3-1.8-.3H70v2.8Zm8.5-6h2v1.2a2.9 2.9 0 0 1 2.4-1.4 3 3 0 0 1 2.3 1.1c.6.7 1 1.7 1 3s-.4 2.3-1 3a3 3 0 0 1-3.5.8 4 4 0 0 1-1.1-.9v4h-2v-10.8Zm2 3.8c0 .9.2 1.5.6 2 .3.3.8.5 1.2.5.5 0 1-.1 1.2-.5.4-.4.5-1 .5-2 0-.7-.1-1.3-.5-1.7-.3-.4-.7-.6-1.2-.6s-1 .2-1.2.6c-.4.3-.5 1-.5 1.7Zm8.8-1.4-1.9-.3a3 3 0 0 1 1.1-1.7 4 4 0 0 1 2.3-.6c1 0 1.6.2 2 .4.5.2.8.5 1 .8.2.3.3 1 .3 1.8v4l.4 1h-2a7.6 7.6 0 0 1-.3-.9c-.3.4-.7.6-1.1.8-.4.2-.8.3-1.3.3-.8 0-1.4-.2-1.9-.7a2 2 0 0 1-.7-1.6c0-.5.1-.9.3-1.2a2 2 0 0 1 1-.8l1.5-.5c1-.2 1.7-.3 2-.5v-.2c0-.4 0-.7-.2-.8-.2-.2-.6-.3-1.2-.3-.3 0-.6 0-.8.2-.2.2-.4.4-.5.8Zm2.7 1.7-1.2.3-1.1.3a1 1 0 0 0-.4.8c0 .3 0 .5.3.7.2.2.5.3.8.3.4 0 .7-.1 1-.3l.6-.7v-1.4Zm3.2-4h7v1.6h-2.5v6.1h-2v-6.1h-2.5v-1.7Zm7.7 0h2.2l1.8 5.4 1.8-5.5h2.2l-2.8 7.5-.5 1.4-.5 1-.6.6-.7.3a5.5 5.5 0 0 1-2.2 0l-.2-1.6.8.1c.5 0 .9-.1 1-.4.3-.3.5-.6.6-1l-3-7.9Zm8.5 7.7 2.8-4-2.7-3.8h2.5l1.4 2.2 1.4-2.2h2.5l-2.7 3.7 2.9 4.1H117l-1.6-2.4-1.6 2.4h-2.4Zm10.9-5.4-1.9-.3a3 3 0 0 1 1-1.7 4 4 0 0 1 2.4-.6c.9 0 1.6.2 2 .4.5.2.8.5 1 .8l.2 1.8v2.4l.1 1.6c0 .3.2.6.4 1h-2a7.8 7.8 0 0 1-.3-.9l-1.1.8a3 3 0 0 1-1.3.3c-.8 0-1.5-.2-2-.7-.4-.4-.6-1-.6-1.6 0-.5 0-.9.3-1.2.2-.3.5-.6.9-.8l1.6-.5 2-.5v-.2c0-.4 0-.7-.3-.8-.2-.2-.5-.3-1-.3-.4 0-.7 0-1 .2l-.4.8Zm2.7 1.7-1.2.3-1.2.3c-.2.2-.4.5-.4.8 0 .3.2.5.4.7.2.2.5.3.8.3.4 0 .7-.1 1-.3.3-.2.5-.5.5-.7l.1-1v-.4Z"/><rect width="360" height="30" x="144" y="507" fill="#D4F2FA" rx="4"/><path fill="#000" d="m168 526 4.1-10.7h1.5L178 526h-1.6l-1.2-3.3h-4.5l-1.2 3.3H168Zm3-4.4h3.7l-1.1-3-.8-2.2-.5 2-1.2 3.2Zm8-3.4h4.5v1.1h-3.2v6.7H179v-7.8Zm10.2 6.8c-.5.5-1 .7-1.4 1a4 4 0 0 1-1.5.2c-.8 0-1.5-.2-2-.6a2 2 0 0 1-.6-1.7 2.1 2.1 0 0 1 1-1.8l.9-.4 1.2-.2 2.3-.4v-.4c0-.5-.1-.9-.4-1.1-.3-.3-.8-.5-1.5-.5-.6 0-1 .1-1.3.4-.3.2-.6.6-.7 1.1l-1.3-.2c.1-.5.3-1 .6-1.3.3-.3.7-.6 1.2-.8.5-.2 1-.3 1.7-.3s1.2.1 1.6.3c.5.1.8.3 1 .6.2.2.3.5.4.9v2.9l.1 2.4c0 .3.2.6.4.9h-1.4c-.2-.3-.3-.6-.3-1Zm-.1-2.9a8 8 0 0 1-2.2.5 5 5 0 0 0-1.1.3 1.1 1.1 0 0 0-.7 1c0 .4.1.7.4.9.3.2.6.3 1.2.3.5 0 1 0 1.3-.3.4-.2.7-.5.9-.9l.2-1.3v-.5Zm3.7 3.9v-1.5h1.5v1.5c0 .6 0 1-.3 1.3a2 2 0 0 1-.9.8l-.4-.5.7-.6.2-1h-.8Zm8-7.8h2.1l2 6.2 2.3-6.2h2v7.8h-1.4v-6.3l-2.3 6.3h-1.2l-2.1-6.6v6.6h-1.3v-7.8Zm9.9 4c0-1.5.4-2.6 1.2-3.3.6-.6 1.4-.9 2.4-.9s2 .4 2.6 1.1a4 4 0 0 1 1 2.9c0 1-.1 1.8-.4 2.4-.3.5-.7 1-1.3 1.3-.6.3-1.2.5-1.9.5-1 0-2-.4-2.6-1-.7-.8-1-1.8-1-3Zm1.3 0c0 1 .2 1.7.7 2.2.4.4 1 .7 1.6.7a2 2 0 0 0 1.6-.8c.5-.5.7-1.2.7-2.2 0-1-.2-1.7-.7-2.2a2 2 0 0 0-1.6-.8 2 2 0 0 0-1.6.8c-.5.5-.7 1.2-.7 2.2Zm12-4v3.4c.4 0 .7-.1 1-.3l.7-1.4a4 4 0 0 1 .8-1.4c.2-.2.6-.3 1.1-.3h.5v1.1h-.3c-.4 0-.6 0-.7.2a4 4 0 0 0-.5 1l-.5 1-.8.5c.6.2 1.1.7 1.7 1.6l1.4 2.4H227l-1.5-2.4c-.2-.5-.5-.8-.7-1l-.8-.2v3.6h-1.3v-3.6c-.3 0-.6 0-.8.2a3 3 0 0 0-.7 1l-1.5 2.4h-1.4l1.4-2.4c.6-1 1.1-1.4 1.7-1.6l-.8-.6-.7-1.5c-.1-.3-.2-.4-.4-.5h-.9v-1.2h.2l1 .1c.3 0 .4.2.6.4l.6 1.2c.4.8.6 1.3.8 1.4.2.2.4.3.9.3v-3.4h1.3Zm10.7 5.3 1.3.2a3 3 0 0 1-1.2 1.8c-.5.5-1.3.7-2.2.7a4 4 0 0 1-2.7-1c-.7-.8-1-1.8-1-3 0-1.3.4-2.3 1-3 .7-.8 1.6-1.2 2.6-1.2s2 .4 2.6 1.1c.7.7 1 1.7 1 3v.3h-5.8c0 .9.3 1.6.7 2 .4.5 1 .7 1.6.7a2 2 0 0 0 1.3-.4c.3-.2.6-.6.8-1.2Zm-4.3-2.1h4.3c0-.7-.2-1.2-.5-1.5a2 2 0 0 0-1.6-.8c-.6 0-1.2.2-1.6.6-.4.4-.6 1-.6 1.7Zm7.3-3.2h1.4v6.7h3v-6.7h1.3v6.7h3v-6.7h1.3v7.8h-10v-7.8Zm12 0h1.3v3h1.7c1.1 0 2 .3 2.5.7.6.4 1 1 1 1.7s-.3 1.2-.8 1.7-1.3.7-2.4.7h-3.3v-7.8Zm1.3 6.7h1.4c.9 0 1.5 0 1.8-.3.4-.2.5-.5.5-1 0-.3 0-.6-.3-.9-.3-.2-.9-.3-1.8-.3H251v2.5Zm16-1.4 1.4.2a3 3 0 0 1-1.2 1.8c-.5.5-1.3.7-2.2.7a4 4 0 0 1-2.7-1c-.7-.8-1-1.8-1-3 0-1.3.3-2.3 1-3 .7-.8 1.6-1.2 2.6-1.2s2 .4 2.6 1.1c.6.7 1 1.7 1 3v.3h-5.8c0 .9.3 1.6.7 2 .4.5 1 .7 1.6.7a2 2 0 0 0 1.3-.4c.3-.2.6-.6.8-1.2Zm-4.3-2.1h4.4c0-.7-.2-1.2-.5-1.5a2 2 0 0 0-1.6-.8c-.7 0-1.2.2-1.6.6a3 3 0 0 0-.7 1.7Zm13-6.4h1c0 .5 0 1-.3 1.1-.1.2-.4.3-.7.4l-1.6.1c-1.1 0-1.8.1-2.2.3-.4.2-.7.6-.9 1-.2.5-.3 1-.3 1.8.4-.5.7-.9 1.2-1.1a3 3 0 0 1 1.5-.4c1 0 1.9.4 2.5 1a4 4 0 0 1 1 3 4 4 0 0 1-1.7 3.6c-.4.2-1 .4-1.9.4-.9 0-1.6-.2-2.1-.7-.5-.4-1-1-1.2-1.6a10 10 0 0 1-.4-3.4c0-2 .3-3.5 1-4.2.7-.7 1.8-1 3.3-1h1.5l.2-.3Zm-.2 7c0-.7-.1-1.4-.5-2-.4-.4-1-.7-1.6-.7a2 2 0 0 0-1.7.8c-.4.6-.6 1.3-.6 2.2 0 1 .2 1.6.6 2.1.5.5 1 .7 1.6.7a2 2 0 0 0 1.6-.8c.4-.6.6-1.3.6-2.2Zm7.7 3c-.4.5-1 .7-1.4 1a4 4 0 0 1-1.4.2 3 3 0 0 1-2-.6 2 2 0 0 1-.7-1.7 2.1 2.1 0 0 1 1-1.8l1-.4 1-.2 2.4-.4v-.4c0-.5 0-.9-.3-1.1-.4-.3-.9-.5-1.5-.5-.7 0-1.1.1-1.4.4-.3.2-.5.6-.7 1.1l-1.3-.2.6-1.3c.3-.3.7-.6 1.2-.8.5-.2 1-.3 1.8-.3.6 0 1.2.1 1.6.3.4.1.7.3.9.6.2.2.3.5.4.9v2.9l.1 2.4.4.9h-1.4l-.3-1Zm0-2.9a9 9 0 0 1-2.2.5 5 5 0 0 0-1.2.3 1.1 1.1 0 0 0-.3 1.9c.3.2.7.3 1.2.3s1 0 1.3-.3c.4-.2.7-.5 1-.9l.1-1.3v-.5Zm3.3-3.9h1.3v3.3h3.7v-3.3h1.3v7.8h-1.3v-3.5h-3.7v3.5h-1.3v-7.8Zm8.2 10.8-.1-1.2h1.5l.4-.5a6.5 6.5 0 0 0 .5-1.3l-3-7.8h1.5l1.6 4.5.6 1.8.5-1.7 1.7-4.6h1.3l-3 8-.7 1.7-.8 1a2 2 0 0 1-1.1.3l-.9-.2Zm6.9-10.8h6.3v1.1h-2.5v6.7h-1.3v-6.7h-2.5v-1Zm7.6 0h1.3v3h1.6c1.1 0 2 .3 2.6.7.5.4.8 1 .8 1.7s-.2 1.2-.7 1.7c-.5.5-1.3.7-2.4.7h-3.2v-7.8Zm1.3 6.7h1.4c.8 0 1.4 0 1.7-.3.4-.2.6-.5.6-1 0-.3-.2-.6-.4-.9-.3-.2-.9-.3-1.8-.3h-1.5v2.5Zm10-6.7h6.3v1.1h-2.5v6.7H323v-6.7h-2.5v-1Zm12.4 6.8c-.4.5-1 .7-1.4 1a4 4 0 0 1-1.4.2 3 3 0 0 1-2-.6 2 2 0 0 1-.7-1.7 2.1 2.1 0 0 1 1-1.8l1-.4 1-.2 2.4-.4v-.4c0-.5 0-.9-.3-1.1-.4-.3-.9-.5-1.5-.5-.7 0-1.1.1-1.4.4-.3.2-.5.6-.7 1.1l-1.3-.2.6-1.3c.3-.3.7-.6 1.2-.8.5-.2 1-.3 1.8-.3.6 0 1.2.1 1.6.3.4.1.7.3.9.6.2.2.3.5.4.9v2.9l.1 2.4.4.9h-1.4l-.3-1Zm0-2.9a9 9 0 0 1-2.2.5 5 5 0 0 0-1.2.3 1.1 1.1 0 0 0-.3 1.9c.3.2.7.3 1.2.3s1 0 1.3-.3c.4-.2.7-.5 1-.9l.1-1.3v-.5Zm3.3-3.9h1.3v3.4c.4 0 .7-.1.9-.3.2-.1.4-.6.8-1.4l.6-1.2.5-.4h1.3v1h-.4c-.3 0-.5 0-.6.2l-.5 1a4 4 0 0 1-.5 1l-.8.5c.6.2 1.1.7 1.7 1.6l1.4 2.4h-1.4l-1.4-2.4-.8-1-.8-.2v3.6h-1.3v-7.8Zm6 4.6v-1.3h4.1v1.3h-4Zm4.9-4.6h6.3v1.1h-2.5v6.7h-1.3v-6.7H347v-1Zm6.9 4c0-1.5.4-2.6 1.2-3.3.6-.6 1.5-.9 2.4-.9 1 0 2 .4 2.6 1.1a4 4 0 0 1 1 2.9c0 1 0 1.8-.4 2.4-.3.5-.7 1-1.3 1.3-.6.3-1.2.5-1.9.5-1 0-2-.4-2.6-1-.7-.8-1-1.8-1-3Zm1.3 0c0 1 .2 1.7.7 2.2.4.4 1 .7 1.6.7a2 2 0 0 0 1.7-.8c.4-.5.6-1.2.6-2.2 0-1-.2-1.7-.6-2.2a2 2 0 0 0-1.7-.8 2 2 0 0 0-1.6.8c-.5.5-.7 1.2-.7 2.2Zm7.9 3.8v-1.5h1.5v1.5h-1.5Zm4.2 0v-1.5h1.5v1.5h-1.5Zm4.1 0v-1.5h1.5v1.5h-1.5Z"/><path fill="#D4F2FA" d="m145.6 516 5.7 5.6-5.6 5.7-5.7-5.6z"/><rect width="360" height="49" x="144" y="446" fill="#ACEAFA" rx="4"/><path fill="#000" d="M169.2 454.3h8.4V465h-1.4v-9.5h-5.6v9.5h-1.4v-10.7Zm10.6 13.7v-10.8h1.2v1a3 3 0 0 1 1-.9c.3-.2.7-.3 1.2-.3a3 3 0 0 1 1.8.6c.5.3.9.8 1.1 1.4.3.6.4 1.3.4 2a5 5 0 0 1-.4 2.2 3.2 3.2 0 0 1-3 2l-1.2-.3-.8-.7v3.8h-1.3Zm1.2-6.8c0 1 .2 1.7.6 2.2.4.5.9.7 1.4.7.6 0 1.1-.3 1.5-.7.5-.5.7-1.3.7-2.4 0-1-.2-1.7-.6-2.2a2 2 0 0 0-1.5-.7c-.6 0-1 .2-1.5.8-.4.5-.6 1.3-.6 2.3Zm7.1-4h1.3v6l3.7-6h1.4v7.8h-1.3v-5.9l-3.7 5.9h-1.4v-7.8Zm8.4 0h3c.8 0 1.3 0 1.7.2a2 2 0 0 1 1.3 1.9c0 .4 0 .7-.2 1-.1.2-.4.5-.7.6l1 .7.3 1.2a2 2 0 0 1-.8 1.7 4 4 0 0 1-2 .5h-3.6v-7.8Zm1.3 3.3h2.6l.6-.4.2-.7c0-.4-.1-.7-.4-.8-.3-.2-.8-.3-1.5-.3h-1.5v2.2Zm0 3.4h1.8c.7 0 1.2 0 1.5-.2.3-.2.4-.5.4-1 0-.2 0-.4-.2-.6a1 1 0 0 0-.6-.4l-1.3-.1h-1.6v2.3Zm11.8-1.4 1.4.2a3 3 0 0 1-1.2 1.8c-.6.5-1.3.7-2.2.7-1.2 0-2-.4-2.8-1a5 5 0 0 1-1-3c0-1.3.4-2.3 1-3 .7-.8 1.6-1.2 2.7-1.2 1 0 1.9.4 2.5 1.1.7.7 1 1.7 1 3v.3h-5.8c0 .9.3 1.6.7 2 .5.5 1 .7 1.7.7a2 2 0 0 0 1.2-.4c.3-.2.6-.6.8-1.2Zm-4.3-2.1h4.3c0-.7-.2-1.2-.5-1.5a2 2 0 0 0-1.6-.8 2 2 0 0 0-1.5.6c-.4.4-.7 1-.7 1.7Zm6.1-3.2h6.4v1.1h-2.6v6.7H214v-6.7h-2.5v-1Zm6.3 7.8v-1.5h1.5v1.5h-1.5Zm16.7 0v-10.7h-4.8c-1 0-1.7 0-2.2.3-.5.1-.9.5-1.2 1a3 3 0 0 0-.4 1.6c0 .8.2 1.4.7 2 .5.4 1.3.8 2.3 1l-.9.4-1.1 1.5-2 2.9h1.9l1.4-2.2 1-1.5.7-.7.7-.3h2.4v4.7h1.5Zm-1.5-6h-3c-.7 0-1.2 0-1.5-.2-.4-.1-.7-.3-.9-.6a2 2 0 0 1-.3-1c0-.5.2-1 .6-1.3.4-.3 1-.5 1.7-.5h3.4v3.6Zm12.9 3.2 1.3.1c-.2 1-.5 1.6-1.1 2.1a3.6 3.6 0 0 1-4.7-.2c-.7-.8-1-1.8-1-3 0-.9.1-1.6.4-2.3.3-.6.7-1 1.3-1.4a4 4 0 0 1 1.8-.5c.9 0 1.6.3 2.1.7.6.4.9 1 1 1.8l-1.2.2a2 2 0 0 0-.7-1.2c-.3-.2-.7-.4-1.1-.4a2 2 0 0 0-1.6.7c-.4.5-.6 1.3-.6 2.3 0 1 .2 1.8.6 2.3.4.5.9.7 1.5.7.5 0 1-.2 1.3-.5.4-.3.6-.8.7-1.4Zm7.7.3 1.4.2a3 3 0 0 1-1.2 1.8c-.6.5-1.3.7-2.2.7-1.2 0-2-.4-2.7-1-.7-.8-1-1.8-1-3 0-1.3.3-2.3 1-3 .7-.8 1.5-1.2 2.6-1.2 1 0 1.9.4 2.5 1.1.7.7 1 1.7 1 3v.3h-5.8c0 .9.3 1.6.8 2 .4.5 1 .7 1.6.7a2 2 0 0 0 1.2-.4c.4-.2.6-.6.8-1.2Zm-4.3-2.1h4.3c0-.7-.2-1.2-.5-1.5a2 2 0 0 0-1.6-.8 2 2 0 0 0-1.5.6c-.4.4-.7 1-.7 1.7Zm7.4-3.2h1.3v6l3.6-6h1.5v7.8h-1.4v-5.9L258 465h-1.4v-7.8Zm4.5-3h1c-.1.7-.4 1.2-.7 1.5-.4.3-.9.5-1.5.5s-1.1-.2-1.5-.5c-.4-.3-.6-.8-.7-1.4h1c0 .3.1.6.3.7.2.2.5.3.8.3.4 0 .7-.1 1-.3.1-.1.3-.4.3-.7Zm3.4 3h1.3v2.9l.6.7c.3.2.7.3 1.1.3.5 0 1.2 0 2-.4v-3.5h1.3v7.8h-1.4v-3.1l-2.2.3a3 3 0 0 1-1.6-.4l-1-1.1-.1-1.4v-2Zm13.3 6.8c-.5.5-1 .7-1.4 1a4 4 0 0 1-1.4.2 3 3 0 0 1-2-.6 2 2 0 0 1-.7-1.7 2.1 2.1 0 0 1 1-1.8l.9-.4 1.2-.2 2.3-.4v-.4c0-.5 0-.9-.3-1.1-.4-.3-.9-.5-1.5-.5-.7 0-1.1.1-1.4.4-.3.2-.5.6-.7 1.1l-1.3-.2c.2-.5.3-1 .6-1.3.3-.3.7-.6 1.2-.8.5-.2 1-.3 1.7-.3s1.3.1 1.7.3c.4.1.7.3.9.6.2.2.3.5.4.9v2.9l.1 2.4.4.9H278l-.3-1Zm0-2.9c-.6.2-1.3.4-2.2.5a5 5 0 0 0-1.2.3 1.1 1.1 0 0 0-.7 1c0 .4.2.7.4.9.3.2.7.3 1.2.3s1 0 1.3-.3c.4-.2.7-.5 1-.9l.1-1.3v-.5Zm8.4 1 1.3.2c-.2 1-.5 1.6-1.1 2.1a3.6 3.6 0 0 1-4.7-.2c-.7-.8-1-1.8-1-3 0-.9.1-1.6.4-2.3.3-.6.7-1 1.3-1.4.6-.3 1.2-.5 1.9-.5.8 0 1.5.3 2 .7.6.4.9 1 1 1.8l-1.2.2a2 2 0 0 0-.7-1.2c-.3-.2-.7-.4-1.1-.4a2 2 0 0 0-1.6.7c-.4.5-.6 1.3-.6 2.3 0 1 .2 1.8.6 2.3.4.5.9.7 1.5.7.5 0 1-.2 1.3-.5.4-.3.6-.8.7-1.4Zm12 .4 1.3.2a3 3 0 0 1-1.2 1.8c-.6.5-1.3.7-2.3.7-1 0-2-.4-2.7-1a5 5 0 0 1-1-3c0-1.3.4-2.3 1-3 .7-.8 1.6-1.2 2.7-1.2 1 0 1.9.4 2.5 1.1.7.7 1 1.7 1 3v.3h-5.8c0 .9.3 1.6.7 2 .5.5 1 .7 1.7.7a2 2 0 0 0 1.2-.4c.3-.2.6-.6.8-1.2Zm-4.4-2.1h4.3c0-.7-.2-1.2-.5-1.5a2 2 0 0 0-1.6-.8 2 2 0 0 0-1.5.6c-.4.4-.7 1-.7 1.7Zm13-6.4h1.2c0 .5-.2 1-.4 1.1-.1.2-.4.3-.6.4l-1.7.1c-1 0-1.8.1-2.2.3-.4.2-.7.6-.9 1l-.3 1.8a4 4 0 0 1 1.2-1.1 3 3 0 0 1 1.5-.4c1 0 1.9.4 2.5 1a4 4 0 0 1 1 3 4 4 0 0 1-1.7 3.6 4 4 0 0 1-1.8.4c-1 0-1.7-.2-2.2-.7-.5-.4-1-1-1.2-1.6a10 10 0 0 1-.4-3.4c0-2 .4-3.5 1-4.2.7-.7 1.8-1 3.3-1h1.5l.2-.3Zm0 7c0-.7-.2-1.4-.6-2-.4-.4-1-.7-1.6-.7a2 2 0 0 0-1.7.8c-.4.6-.6 1.3-.6 2.2 0 1 .2 1.6.6 2.1.5.5 1 .7 1.7.7.6 0 1.1-.3 1.5-.8.5-.6.7-1.3.7-2.2Zm2.5 7-.1-1.2h1.4l.5-.5a6.4 6.4 0 0 0 .5-1.3l-3-7.8h1.5l1.6 4.5.6 1.8.5-1.7 1.7-4.6h1.3l-3 8-.7 1.7-.8 1a2 2 0 0 1-1.1.3l-.9-.2Zm12.5-5.8 1.3.1c-.2 1-.5 1.6-1.1 2.1-.6.5-1.3.8-2.1.8-1.1 0-2-.4-2.6-1-.7-.8-1-1.8-1-3 0-.9.2-1.6.4-2.3.3-.6.7-1 1.3-1.4.6-.3 1.2-.5 1.9-.5.8 0 1.5.3 2 .7.6.4 1 1 1 1.8l-1.2.2a2 2 0 0 0-.7-1.2c-.3-.2-.6-.4-1-.4a2 2 0 0 0-1.7.7c-.4.5-.6 1.3-.6 2.3 0 1 .2 1.8.6 2.3.4.5.9.7 1.5.7s1-.2 1.3-.5c.4-.3.6-.8.7-1.4Zm2.4-5h1.3v3h1.7c1 0 2 .3 2.5.7.6.4.9 1 .9 1.7s-.3 1.2-.8 1.7c-.4.5-1.2.7-2.3.7h-3.3v-7.8Zm1.3 6.7h1.4c.8 0 1.4 0 1.8-.3.3-.2.5-.5.5-1 0-.3-.1-.6-.4-.9-.2-.2-.8-.3-1.7-.3h-1.6v2.5Zm15.8-1.7 1.3.1c-.2 1-.5 1.6-1.1 2.1-.6.5-1.3.8-2.1.8-1.1 0-2-.4-2.6-1-.7-.8-1-1.8-1-3 0-.9.2-1.6.4-2.3.3-.6.7-1 1.3-1.4.6-.3 1.2-.5 1.9-.5.8 0 1.5.3 2 .7.6.4 1 1 1 1.8l-1.2.2a2 2 0 0 0-.7-1.2c-.3-.2-.7-.4-1-.4a2 2 0 0 0-1.7.7c-.4.5-.6 1.3-.6 2.3 0 1 .2 1.8.6 2.3.4.5.9.7 1.5.7s1-.2 1.3-.5c.4-.3.6-.8.7-1.4Zm5.9-5h6.3v1.1H351v6.7h-1.3v-6.7h-2.5v-1Zm12.7 5.3 1.4.2a3 3 0 0 1-1.2 1.8c-.6.5-1.3.7-2.2.7-1.2 0-2-.4-2.8-1a5 5 0 0 1-1-3c0-1.3.4-2.3 1-3 .7-.8 1.6-1.2 2.7-1.2 1 0 1.9.4 2.5 1.1.7.7 1 1.7 1 3v.3h-5.8c0 .9.3 1.6.7 2 .5.5 1 .7 1.7.7a2 2 0 0 0 1.2-.4c.3-.2.6-.6.8-1.2Zm-4.3-2.1h4.3c0-.7-.2-1.2-.5-1.5a2 2 0 0 0-1.6-.8 2 2 0 0 0-1.5.6c-.4.4-.7 1-.7 1.7Zm7.4-3.2h2l2 6.2 2.3-6.2h2v7.8h-1.4v-6.3l-2.3 6.3h-1.2l-2.1-6.6v6.6H363v-7.8Zm9.7 4.6v-1.3h4v1.3h-4Zm4.8-4.6h6.4v1.1h-2.6v6.7H380v-6.7h-2.5v-1Zm7 4c0-1.5.3-2.6 1.1-3.3.7-.6 1.5-.9 2.5-.9s2 .4 2.6 1.1a4 4 0 0 1 1 2.9c0 1-.1 1.8-.4 2.4a4 4 0 0 1-1.3 1.3 4 4 0 0 1-4.6-.5 5 5 0 0 1-1-3Zm1.3 0c0 1 .2 1.7.7 2.2.4.4 1 .7 1.6.7a2 2 0 0 0 1.6-.8c.5-.5.7-1.2.7-2.2 0-1-.2-1.7-.7-2.2a2 2 0 0 0-1.6-.8 2 2 0 0 0-1.6.8c-.5.5-.7 1.2-.7 2.2Zm11.7-4h1.3v6l3.6-6h1.5v7.8h-1.4v-5.9L399 465h-1.4v-7.8Zm11.8 0h6.3v1.1h-2.5v6.7h-1.3v-6.7h-2.5v-1Zm12.7 5.3 1.4.2a3 3 0 0 1-1.2 1.8c-.6.5-1.3.7-2.2.7-1.2 0-2-.4-2.7-1-.7-.8-1-1.8-1-3 0-1.3.3-2.3 1-3 .7-.8 1.5-1.2 2.6-1.2 1 0 1.9.4 2.6 1.1.6.7 1 1.7 1 3v.3h-5.9c0 .9.3 1.6.8 2 .4.5 1 .7 1.6.7a2 2 0 0 0 1.2-.4c.4-.2.6-.6.8-1.2Zm-4.3-2.1h4.3c0-.7-.2-1.2-.4-1.5a2 2 0 0 0-1.7-.8 2 2 0 0 0-1.5.6c-.4.4-.7 1-.7 1.7Zm7.4-3.2h2l2 6.2 2.4-6.2h1.9v7.8H432v-6.3l-2.3 6.3h-1.1l-2.2-6.6v6.6H425v-7.8Zm9.8 4.6v-1.3h4v1.3h-4Zm4.8-4.6h6.3v1.1h-2.5v6.7h-1.3v-6.7h-2.5v-1Zm6.9 4c0-1.5.4-2.6 1.2-3.3.6-.6 1.5-.9 2.4-.9 1 0 2 .4 2.6 1.1a4 4 0 0 1 1 2.9c0 1 0 1.8-.4 2.4-.3.5-.7 1-1.3 1.3-.6.3-1.2.5-1.9.5-1 0-2-.4-2.6-1-.7-.8-1-1.8-1-3Zm1.3 0c0 1 .2 1.7.7 2.2.4.4 1 .7 1.6.7a2 2 0 0 0 1.7-.8c.4-.5.6-1.2.6-2.2 0-1-.2-1.7-.7-2.2a2 2 0 0 0-1.6-.8 2 2 0 0 0-1.6.8c-.5.5-.7 1.2-.7 2.2Zm11.7-4h1.3v6l3.7-6h1.4v7.8h-1.3v-5.9L461 465h-1.4v-7.8ZM168 484l2.9-4-2.7-3.8h1.7l1.2 1.8.5 1 .6-1 1.3-1.8h1.6l-2.7 3.7 2.9 4.1h-1.6l-1.6-2.4-.4-.7-2 3.1H168Zm7.7-3.9c0-1.4.4-2.5 1.2-3.2.7-.6 1.5-.9 2.5-.9s2 .4 2.6 1.1a4 4 0 0 1 1 2.9c0 1-.1 1.8-.4 2.4-.3.5-.8 1-1.4 1.3-.5.3-1.2.5-1.8.5a4 4 0 0 1-2.7-1 5 5 0 0 1-1-3Zm1.4 0c0 1 .2 1.8.6 2.3.5.4 1 .7 1.7.7a2 2 0 0 0 1.6-.8c.4-.5.7-1.2.7-2.2 0-1-.3-1.7-.7-2.2a2 2 0 0 0-1.6-.8c-.7 0-1.2.3-1.7.8-.4.5-.6 1.2-.6 2.2Zm6.6-3.9h1.4v2.9c.1.3.3.5.6.7.3.2.7.3 1.1.3.5 0 1.1 0 2-.4v-3.5h1.3v7.8h-1.4v-3.1l-2.2.3a3 3 0 0 1-1.6-.4c-.4-.3-.8-.7-1-1.1l-.2-1.4v-2ZM192 487l-.2-1.2h1.5l.4-.5a6.4 6.4 0 0 0 .6-1.3l-3-7.8h1.4l1.6 4.5.6 1.8.5-1.7 1.7-4.6h1.3l-3 8c-.2.8-.5 1.4-.7 1.7l-.8 1c-.3.2-.6.3-1 .3l-1-.2Zm11.7-10.8h6.2v7.8h-1.4v-6.7H205v6.7h-1.3v-7.8Zm8.2 0h1.3v6l3.6-6h1.4v7.8H217v-5.9l-3.6 5.9H212v-7.8Zm10 4.3v-1l1.2-.1c.2 0 .4-.2.6-.4l.2-.7a1 1 0 0 0-.3-.8c-.3-.3-.6-.4-1-.4-.7 0-1.2.5-1.5 1.3l-1.2-.2c.3-1.4 1.3-2.2 2.8-2.2.8 0 1.5.3 2 .7.4.5.6 1 .6 1.7 0 .6-.3 1-.9 1.5.4.2.7.4.9.8.2.3.3.7.3 1.1 0 .7-.3 1.3-.8 1.7-.5.5-1.2.7-2.1.7-1.8 0-2.8-.8-3-2.4l1.1-.3c.2.5.4 1 .7 1.2.4.3.8.4 1.2.4.5 0 .8-.1 1.1-.4.3-.2.5-.5.5-1a1 1 0 0 0-.3-.7c-.2-.2-.4-.4-.6-.4a5 5 0 0 0-1.4-.1Zm6-4.3h5.3v6.7h.9v3.3H233V484h-6v2.2h-1.1v-3.3h.7c1-1.2 1.4-3.5 1.3-6.7Zm1 1.1c0 2.5-.5 4.4-1.2 5.6h4.2v-5.6h-3Zm11.7 5.7c-.5.5-1 .7-1.4 1a4 4 0 0 1-1.4.2c-.9 0-1.6-.2-2-.6a2 2 0 0 1-.7-1.7 2.1 2.1 0 0 1 1-1.8l.9-.4 1.2-.2 2.3-.4v-.4c0-.5-.1-.9-.4-1.1-.3-.3-.8-.5-1.5-.5-.6 0-1 .1-1.3.4-.3.2-.6.6-.7 1.1l-1.3-.2c.1-.5.3-1 .6-1.3.3-.3.7-.6 1.2-.8.5-.2 1-.3 1.7-.3s1.2.1 1.6.3c.5.1.8.3 1 .6.2.2.3.5.4.9v2.9l.1 2.4c0 .3.2.6.4.9H241c-.2-.3-.2-.6-.3-1Zm0-2.9c-.6.2-1.3.4-2.2.5a5 5 0 0 0-1.2.3 1.1 1.1 0 0 0-.7 1c0 .4.1.7.4.9.3.2.7.3 1.2.3s1 0 1.3-.3c.4-.2.7-.5.9-.9l.2-1.3v-.5Zm3.3-3.9h1.3v3.3h3.7v-3.3h1.3v7.8H249v-3.4h-3.7v3.4H244v-7.8Zm8.2 10.8-.1-1.2h1.4l.5-.5a6.4 6.4 0 0 0 .5-1.3l-3-7.8h1.5l1.6 4.5.5 1.8.6-1.7 1.6-4.6h1.4l-3 8-.7 1.7-.8 1a2 2 0 0 1-1.1.3l-.9-.2Zm6.9-10.8h6.3v1.1h-2.5v6.7h-1.3v-6.7H259v-1Zm7.5 0h1.3v3h1.7c1.1 0 2 .3 2.5.7.6.4 1 1 1 1.7s-.3 1.2-.8 1.7-1.3.7-2.4.7h-3.3v-7.8Zm1.3 6.7h1.4c.9 0 1.5 0 1.8-.3.4-.2.6-.5.6-1 0-.3-.2-.6-.4-.9-.3-.2-.9-.3-1.8-.3H268v2.5Zm10-6.7h6.4v1.1h-2.5v6.7h-1.4v-6.7H278v-1Zm7 4c0-1.5.4-2.6 1.2-3.3.6-.6 1.4-.9 2.4-.9s2 .4 2.6 1.1a4 4 0 0 1 1 2.9c0 1-.1 1.8-.4 2.4a4 4 0 0 1-1.3 1.3c-.6.3-1.2.5-1.9.5-1 0-2-.4-2.6-1-.7-.8-1-1.8-1-3Zm1.3 0c0 1 .2 1.7.7 2.2.4.4 1 .7 1.6.7a2 2 0 0 0 1.6-.8c.5-.5.7-1.2.7-2.2 0-1-.2-1.7-.7-2.2a2 2 0 0 0-1.6-.8 2 2 0 0 0-1.6.8c-.5.5-.7 1.2-.7 2.2Zm7 .6v-1.3h4v1.3h-4Zm4.8-4.6h6.3v1.1h-2.5v6.7h-1.3v-6.7H298v-1Zm6.9 4c0-1.5.4-2.6 1.2-3.3.7-.6 1.5-.9 2.4-.9 1.1 0 2 .4 2.7 1.1a4 4 0 0 1 1 2.9c0 1-.2 1.8-.5 2.4-.3.5-.7 1-1.3 1.3-.6.3-1.2.5-1.9.5-1 0-2-.4-2.6-1-.7-.8-1-1.8-1-3Zm1.3 0c0 1 .3 1.7.7 2.2.4.4 1 .7 1.6.7a2 2 0 0 0 1.7-.8c.4-.5.6-1.2.6-2.2 0-1-.2-1.7-.6-2.2a2 2 0 0 0-1.7-.8 2 2 0 0 0-1.6.8c-.4.5-.7 1.2-.7 2.2Zm7.9 3.8v-1.5h1.5v1.5H314Zm4.2 0v-1.5h1.5v1.5h-1.5Zm4.2 0v-1.5h1.5v1.5h-1.5Zm4.1 0v-1.5h1.5v1.5h-1.5Z"/><path fill="#ACEAFA" d="m145.6 454 5.7 5.6-5.6 5.7-5.7-5.6z"/><use xlink:href="#a"/><use xlink:href="#a"/><path fill="#80AAB6" d="M540.7 464H539v-6.2c-.6.6-1.3 1-2.1 1.2v-1.5c.4 0 .9-.4 1.4-.7a3 3 0 0 0 1-1.4h1.4v8.6Zm8-1.5v1.5h-5.8c0-.6.3-1.1.6-1.6.3-.6.9-1.2 1.8-2.1l1.4-1.4c.2-.3.3-.7.3-1 0-.4 0-.7-.3-.9a1 1 0 0 0-.8-.3 1 1 0 0 0-.8.4c-.2.2-.3.5-.4 1l-1.6-.2c.1-.9.4-1.5 1-2a3 3 0 0 1 1.9-.5c.8 0 1.5.2 2 .7.4.4.7 1 .7 1.7 0 .4 0 .7-.2 1l-.7 1.2-1 1a18.9 18.9 0 0 0-1.4 1.5h3.3Zm1.8-3v-1.7h1.6v1.6h-1.6Zm0 4.5v-1.6h1.6v1.6h-1.6Zm3.2-2.3 1.6-.2c0 .4.2.7.4 1 .3.2.5.3.8.3.4 0 .7-.1.9-.4.2-.3.4-.6.4-1 0-.5-.2-.8-.4-1a1 1 0 0 0-.8-.4l-.7.1.1-1.3c.5 0 .8-.1 1-.3.3-.2.4-.5.4-.8 0-.3 0-.5-.3-.7a1 1 0 0 0-.6-.3 1 1 0 0 0-.8.3c-.2.2-.3.5-.3.9l-1.5-.3c0-.5.2-1 .4-1.2a2 2 0 0 1 1-.8 3 3 0 0 1 1.2-.2c.8 0 1.5.2 2 .7.4.5.6 1 .6 1.5 0 .7-.5 1.3-1.3 1.8.5 0 1 .3 1.2.7.3.4.4.8.4 1.3 0 .8-.2 1.4-.8 2-.5.5-1.2.7-2 .7s-1.5-.2-2-.6c-.5-.5-.8-1-.9-1.8Zm12.3.8v1.5h-5.7c0-.6.2-1.1.5-1.6.3-.6 1-1.2 1.9-2.1l1.3-1.4c.3-.3.4-.7.4-1 0-.4-.1-.7-.3-.9a1 1 0 0 0-.8-.3c-.4 0-.6.1-.9.4-.2.2-.3.5-.3 1l-1.6-.2c0-.9.4-1.5.9-2a3 3 0 0 1 2-.5c.8 0 1.4.2 2 .7.4.4.6 1 .6 1.7 0 .4 0 .7-.2 1l-.6 1.2-1.1 1a18 18 0 0 0-1.3 1.5h3.2Zm1.8-3v-1.7h1.7v1.6h-1.7Zm0 4.5v-1.6h1.7v1.6h-1.7Zm7.6 0h-1.7v-6.2c-.6.6-1.3 1-2.1 1.2v-1.5c.4 0 .9-.4 1.4-.7a3 3 0 0 0 1-1.4h1.4v8.6Zm8-1.5v1.5h-5.8c0-.6.3-1.1.6-1.6.3-.6 1-1.2 1.8-2.1l1.4-1.4c.2-.3.3-.7.3-1 0-.4 0-.7-.3-.9a1 1 0 0 0-.8-.3 1 1 0 0 0-.8.4c-.2.2-.3.5-.3 1l-1.7-.2c.1-.9.4-1.5 1-2a3 3 0 0 1 1.9-.5c.8 0 1.5.2 2 .7.4.4.7 1 .7 1.7 0 .4 0 .7-.2 1l-.7 1.2-1 1a18.9 18.9 0 0 0-1.4 1.5h3.3ZM540.7 525H539v-6.2c-.6.6-1.3 1-2.1 1.2v-1.5c.4 0 .9-.4 1.4-.7a3 3 0 0 0 1-1.4h1.4v8.6Zm8-1.5v1.5h-5.8c0-.6.3-1.1.6-1.6.3-.6.9-1.2 1.8-2.1l1.4-1.4c.2-.3.3-.7.3-1 0-.4 0-.7-.3-.9a1 1 0 0 0-.8-.3 1 1 0 0 0-.8.4c-.2.2-.3.5-.4 1l-1.6-.2c.1-.9.4-1.5 1-2a3 3 0 0 1 1.9-.5c.8 0 1.5.2 2 .7.4.4.7 1 .7 1.7 0 .4 0 .7-.2 1l-.7 1.2-1 1a18.9 18.9 0 0 0-1.4 1.5h3.3Zm1.8-3v-1.7h1.6v1.6h-1.6Zm0 4.5v-1.6h1.6v1.6h-1.6Zm3.2-2.3 1.6-.2c0 .4.2.7.4 1 .3.2.5.3.8.3.4 0 .7-.1.9-.4.2-.3.4-.6.4-1 0-.5-.2-.8-.4-1a1 1 0 0 0-.8-.4l-.7.1.1-1.3c.5 0 .8-.1 1-.3.3-.2.4-.5.4-.8 0-.3 0-.5-.3-.7a1 1 0 0 0-.6-.3 1 1 0 0 0-.8.3c-.2.2-.3.5-.3.9l-1.5-.3c0-.5.2-1 .4-1.2a2 2 0 0 1 1-.8 3 3 0 0 1 1.2-.2c.8 0 1.5.2 2 .7.4.5.6 1 .6 1.5 0 .7-.5 1.3-1.3 1.8.5 0 1 .3 1.2.7.3.4.4.8.4 1.3 0 .8-.2 1.4-.8 2-.5.5-1.2.7-2 .7s-1.5-.2-2-.6c-.5-.5-.8-1-.9-1.8Zm6.7 0 1.6-.2c0 .4.2.7.4 1 .2.2.5.3.8.3.4 0 .7-.1.9-.4.2-.3.3-.6.3-1 0-.5 0-.8-.3-1a1 1 0 0 0-.8-.4l-.8.1.2-1.3c.5 0 .8-.1 1-.3.3-.2.4-.5.4-.8a1 1 0 0 0-.3-.7 1 1 0 0 0-.7-.3 1 1 0 0 0-.7.3c-.2.2-.3.5-.3.9l-1.6-.3c.1-.5.3-1 .5-1.2.2-.3.5-.6.9-.8a3 3 0 0 1 1.3-.2c.8 0 1.4.2 2 .7.3.5.5 1 .5 1.5 0 .7-.4 1.3-1.2 1.8.5 0 .9.3 1.2.7.3.4.4.8.4 1.3a3 3 0 0 1-.8 2c-.6.5-1.2.7-2 .7s-1.5-.2-2-.6c-.5-.5-.8-1-.9-1.8Zm7.4-2.3v-1.6h1.7v1.6h-1.7Zm0 4.6v-1.6h1.7v1.6h-1.7Zm3.3-2.3 1.6-.2c0 .4.2.7.4 1a1.2 1.2 0 0 0 1.7-.1c.2-.3.3-.6.3-1 0-.5-.1-.8-.3-1a1 1 0 0 0-.8-.4l-.8.1.2-1.3c.4 0 .8-.1 1-.3.2-.2.4-.5.4-.8a1 1 0 0 0-.3-.7 1 1 0 0 0-.7-.3 1 1 0 0 0-.7.3c-.2.2-.3.5-.4.9l-1.5-.3c.1-.5.3-1 .5-1.2.2-.3.5-.6.9-.8a3 3 0 0 1 1.3-.2c.8 0 1.4.2 2 .7.3.5.5 1 .5 1.5 0 .7-.4 1.3-1.2 1.8.5 0 .9.3 1.2.7.3.4.4.8.4 1.3a3 3 0 0 1-.8 2 3 3 0 0 1-2 .7 3 3 0 0 1-2-.6c-.5-.5-.8-1-1-1.8Zm12.3.8v1.5h-5.8c0-.6.3-1.1.6-1.6.3-.6 1-1.2 1.8-2.1l1.4-1.4c.2-.3.3-.7.3-1 0-.4 0-.7-.3-.9a1 1 0 0 0-.8-.3 1 1 0 0 0-.8.4c-.2.2-.3.5-.3 1l-1.7-.2c.1-.9.4-1.5 1-2a3 3 0 0 1 1.9-.5c.8 0 1.5.2 2 .7.4.4.7 1 .7 1.7 0 .4 0 .7-.2 1l-.7 1.2-1 1a18.9 18.9 0 0 0-1.4 1.5h3.3Z"/><use xlink:href="#b"/><use xlink:href="#b"/><path fill="#F3FAFC" d="M0 62h600v268H0z"/><path fill="#F3FAFC" d="M0 194h600v136H0z"/><path fill="#82ACB7" d="M110.5 235v-9h-3.2v-1.7h8.6v1.8h-3.2v8.9h-2.2Zm6.6-7.8h2v3.3h2l2 .1c.4.1.7.4 1 .8.3.4.5.8.5 1.3 0 .8-.3 1.4-.8 1.7a4 4 0 0 1-2.3.6H117v-7.8Zm2 6.5h2c.4 0 .8 0 1-.2.2-.2.3-.4.3-.8s-.1-.6-.4-.8a4 4 0 0 0-1.6-.2h-1.3v2Zm6.6-6.5h2v7.8h-2v-7.8Zm-57.8 58.1h8v1.8H70v2.5h3c.7 0 1.4 0 2 .2.4.2.9.6 1.3 1.1.3.6.5 1.2.5 1.9a3 3 0 0 1-.5 1.9 3 3 0 0 1-1.3 1c-.5.2-1.2.3-2 .3h-5.1v-10.7Zm2.1 8.9h2.1l1.5-.1c.2 0 .5-.2.7-.5.2-.2.3-.5.3-.8 0-.5-.2-.9-.6-1.1-.3-.2-1-.3-1.8-.3H70v2.8Zm8.5-6h2v1.2a2.9 2.9 0 0 1 2.4-1.4 3 3 0 0 1 2.3 1.1c.6.7 1 1.7 1 3s-.4 2.3-1 3a3 3 0 0 1-3.5.8 4 4 0 0 1-1.1-.9v4h-2v-10.8Zm2 3.8c0 .9.2 1.5.6 2 .3.3.8.5 1.2.5.5 0 1-.1 1.2-.5.4-.4.5-1 .5-2 0-.7-.1-1.3-.5-1.7-.3-.4-.7-.6-1.2-.6s-1 .2-1.2.6c-.4.3-.5 1-.5 1.7Zm8.8-1.4-1.9-.3a3 3 0 0 1 1.1-1.7 4 4 0 0 1 2.3-.6c1 0 1.6.2 2 .4.5.2.8.5 1 .8.2.3.3 1 .3 1.8v4l.4 1h-2a7.6 7.6 0 0 1-.3-.9c-.3.4-.7.6-1.1.8-.4.2-.8.3-1.3.3-.8 0-1.4-.2-1.9-.7a2 2 0 0 1-.7-1.6c0-.5.1-.9.3-1.2a2 2 0 0 1 1-.8l1.5-.5c1-.2 1.7-.3 2-.5v-.2c0-.4 0-.7-.2-.8-.2-.2-.6-.3-1.2-.3-.3 0-.6 0-.8.2-.2.2-.4.4-.5.8Zm2.7 1.7-1.2.3-1.1.3a1 1 0 0 0-.4.8c0 .3 0 .5.3.7.2.2.5.3.8.3.4 0 .7-.1 1-.3l.6-.7v-1.4Zm3.2-4h7v1.6h-2.5v6.1h-2v-6.1h-2.5v-1.7Zm7.7 0h2.2l1.8 5.4 1.8-5.5h2.2l-2.8 7.5-.5 1.4-.5 1-.6.6-.7.3a5.5 5.5 0 0 1-2.2 0l-.2-1.6.8.1c.5 0 .9-.1 1-.4.3-.3.5-.6.6-1l-3-7.9Zm8.5 7.7 2.8-4-2.7-3.8h2.5l1.4 2.2 1.4-2.2h2.5l-2.7 3.7 2.9 4.1H117l-1.6-2.4-1.6 2.4h-2.4Zm10.9-5.4-1.9-.3a3 3 0 0 1 1-1.7 4 4 0 0 1 2.4-.6c.9 0 1.6.2 2 .4.5.2.8.5 1 .8l.2 1.8v2.4l.1 1.6c0 .3.2.6.4 1h-2a7.8 7.8 0 0 1-.3-.9l-1.1.8a3 3 0 0 1-1.3.3c-.8 0-1.5-.2-2-.7-.4-.4-.6-1-.6-1.6 0-.5 0-.9.3-1.2.2-.3.5-.6.9-.8l1.6-.5 2-.5v-.2c0-.4 0-.7-.3-.8-.2-.2-.5-.3-1-.3-.4 0-.7 0-1 .2l-.4.8Zm2.7 1.7-1.2.3-1.2.3c-.2.2-.4.5-.4.8 0 .3.2.5.4.7.2.2.5.3.8.3.4 0 .7-.1 1-.3.3-.2.5-.5.5-.7l.1-1v-.4Z"/><rect width="360" height="30" x="144" y="278" fill="#D4F2FA" rx="4"/><path fill="#000" d="m168 297 4.1-10.7h1.5L178 297h-1.6l-1.2-3.3h-4.5l-1.2 3.3H168Zm3-4.4h3.7l-1.1-3-.8-2.2-.5 2-1.2 3.2Zm8-3.4h4.5v1.1h-3.2v6.7H179v-7.8Zm10.2 6.8c-.5.5-1 .7-1.4 1a4 4 0 0 1-1.5.2c-.8 0-1.5-.2-2-.6a2 2 0 0 1-.6-1.7 2.1 2.1 0 0 1 1-1.8l.9-.4 1.2-.2 2.3-.4v-.4c0-.5-.1-.9-.4-1.1-.3-.3-.8-.5-1.5-.5-.6 0-1 .1-1.3.4-.3.2-.6.6-.7 1.1l-1.3-.2c.1-.5.3-1 .6-1.3.3-.3.7-.6 1.2-.8.5-.2 1-.3 1.7-.3s1.2.1 1.6.3c.5.1.8.3 1 .6.2.2.3.5.4.9v2.9l.1 2.4c0 .3.2.6.4.9h-1.4c-.2-.3-.3-.6-.3-1Zm-.1-2.9a8 8 0 0 1-2.2.5 5 5 0 0 0-1.1.3 1.1 1.1 0 0 0-.7 1c0 .4.1.7.4.9.3.2.6.3 1.2.3.5 0 1 0 1.3-.3.4-.2.7-.5.9-.9l.2-1.3v-.5Zm3.7 3.9v-1.5h1.5v1.5c0 .6 0 1-.3 1.3a2 2 0 0 1-.9.8l-.4-.5.7-.6.2-1h-.8Zm8-7.8h2.1l2 6.2 2.3-6.2h2v7.8h-1.4v-6.3l-2.3 6.3h-1.2l-2.1-6.6v6.6h-1.3v-7.8Zm9.9 4c0-1.5.4-2.6 1.2-3.3.6-.6 1.4-.9 2.4-.9s2 .4 2.6 1.1a4 4 0 0 1 1 2.9c0 1-.1 1.8-.4 2.4-.3.5-.7 1-1.3 1.3-.6.3-1.2.5-1.9.5-1 0-2-.4-2.6-1-.7-.8-1-1.8-1-3Zm1.3 0c0 1 .2 1.7.7 2.2.4.4 1 .7 1.6.7a2 2 0 0 0 1.6-.8c.5-.5.7-1.2.7-2.2 0-1-.2-1.7-.7-2.2a2 2 0 0 0-1.6-.8 2 2 0 0 0-1.6.8c-.5.5-.7 1.2-.7 2.2Zm12-4v3.4c.4 0 .7-.1 1-.3l.7-1.4a4 4 0 0 1 .8-1.4c.2-.2.6-.3 1.1-.3h.5v1.1h-.3c-.4 0-.6 0-.7.2a4 4 0 0 0-.5 1l-.5 1-.8.5c.6.2 1.1.7 1.7 1.6l1.4 2.4H227l-1.5-2.4c-.2-.5-.5-.8-.7-1l-.8-.2v3.6h-1.3v-3.6c-.3 0-.6 0-.8.2a3 3 0 0 0-.7 1l-1.5 2.4h-1.4l1.4-2.4c.6-1 1.1-1.4 1.7-1.6l-.8-.6-.7-1.5c-.1-.3-.2-.4-.4-.5h-.9v-1.2h.2l1 .1c.3 0 .4.2.6.4l.6 1.2c.4.8.6 1.3.8 1.4.2.2.4.3.9.3v-3.4h1.3Zm10.7 5.3 1.3.2a3 3 0 0 1-1.2 1.8c-.5.5-1.3.7-2.2.7a4 4 0 0 1-2.7-1c-.7-.8-1-1.8-1-3 0-1.3.4-2.3 1-3 .7-.8 1.6-1.2 2.6-1.2s2 .4 2.6 1.1c.7.7 1 1.7 1 3v.3h-5.8c0 .9.3 1.6.7 2 .4.5 1 .7 1.6.7a2 2 0 0 0 1.3-.4c.3-.2.6-.6.8-1.2Zm-4.3-2.1h4.3c0-.7-.2-1.2-.5-1.5a2 2 0 0 0-1.6-.8c-.6 0-1.2.2-1.6.6-.4.4-.6 1-.6 1.7Zm7.3-3.2h1.4v6.7h3v-6.7h1.3v6.7h3v-6.7h1.3v7.8h-10v-7.8Zm12 0h1.3v3h1.7c1.1 0 2 .3 2.5.7.6.4 1 1 1 1.7s-.3 1.2-.8 1.7-1.3.7-2.4.7h-3.3v-7.8Zm1.3 6.7h1.4c.9 0 1.5 0 1.8-.3.4-.2.5-.5.5-1 0-.3 0-.6-.3-.9-.3-.2-.9-.3-1.8-.3H251v2.5Zm16-1.4 1.4.2a3 3 0 0 1-1.2 1.8c-.5.5-1.3.7-2.2.7a4 4 0 0 1-2.7-1c-.7-.8-1-1.8-1-3 0-1.3.3-2.3 1-3 .7-.8 1.6-1.2 2.6-1.2s2 .4 2.6 1.1c.6.7 1 1.7 1 3v.3h-5.8c0 .9.3 1.6.7 2 .4.5 1 .7 1.6.7a2 2 0 0 0 1.3-.4c.3-.2.6-.6.8-1.2Zm-4.3-2.1h4.4c0-.7-.2-1.2-.5-1.5a2 2 0 0 0-1.6-.8c-.7 0-1.2.2-1.6.6a3 3 0 0 0-.7 1.7Zm13-6.4h1c0 .5 0 1-.3 1.1-.1.2-.4.3-.7.4l-1.6.1c-1.1 0-1.8.1-2.2.3-.4.2-.7.6-.9 1-.2.5-.3 1-.3 1.8.4-.5.7-.9 1.2-1.1a3 3 0 0 1 1.5-.4c1 0 1.9.4 2.5 1a4 4 0 0 1 1 3 4 4 0 0 1-1.7 3.6c-.4.2-1 .4-1.9.4-.9 0-1.6-.2-2.1-.7-.5-.4-1-1-1.2-1.6a10 10 0 0 1-.4-3.4c0-2 .3-3.5 1-4.2.7-.7 1.8-1 3.3-1h1.5l.2-.3Zm-.2 7c0-.7-.1-1.4-.5-2-.4-.4-1-.7-1.6-.7a2 2 0 0 0-1.7.8c-.4.6-.6 1.3-.6 2.2 0 1 .2 1.6.6 2.1.5.5 1 .7 1.6.7a2 2 0 0 0 1.6-.8c.4-.6.6-1.3.6-2.2Zm7.7 3c-.4.5-1 .7-1.4 1a4 4 0 0 1-1.4.2 3 3 0 0 1-2-.6 2 2 0 0 1-.7-1.7 2.1 2.1 0 0 1 1-1.8l1-.4 1-.2 2.4-.4v-.4c0-.5 0-.9-.3-1.1-.4-.3-.9-.5-1.5-.5-.7 0-1.1.1-1.4.4-.3.2-.5.6-.7 1.1l-1.3-.2.6-1.3c.3-.3.7-.6 1.2-.8.5-.2 1-.3 1.8-.3.6 0 1.2.1 1.6.3.4.1.7.3.9.6.2.2.3.5.4.9v2.9l.1 2.4.4.9h-1.4l-.3-1Zm0-2.9a9 9 0 0 1-2.2.5 5 5 0 0 0-1.2.3 1.1 1.1 0 0 0-.3 1.9c.3.2.7.3 1.2.3s1 0 1.3-.3c.4-.2.7-.5 1-.9l.1-1.3v-.5Zm3.3-3.9h1.3v3.3h3.7v-3.3h1.3v7.8h-1.3v-3.4h-3.7v3.4h-1.3v-7.8Zm8.2 10.8-.1-1.2h1.5l.4-.5a6.5 6.5 0 0 0 .5-1.3l-3-7.8h1.5l1.6 4.5.6 1.8.5-1.7 1.7-4.6h1.3l-3 8-.7 1.7-.8 1a2 2 0 0 1-1.1.3l-.9-.2Zm6.9-10.8h6.3v1.1h-2.5v6.7h-1.3v-6.7h-2.5v-1Zm7.6 0h1.3v3h1.6c1.1 0 2 .3 2.6.7.5.4.8 1 .8 1.7s-.2 1.2-.7 1.7c-.5.5-1.3.7-2.4.7h-3.2v-7.8Zm1.3 6.7h1.4c.8 0 1.4 0 1.7-.3.4-.2.6-.5.6-1 0-.3-.2-.6-.4-.9-.3-.2-.9-.3-1.8-.3h-1.5v2.5Zm10-6.7h6.3v1.1h-2.5v6.7H323v-6.7h-2.5v-1Zm12.4 6.8c-.4.5-1 .7-1.4 1a4 4 0 0 1-1.4.2 3 3 0 0 1-2-.6 2 2 0 0 1-.7-1.7 2.1 2.1 0 0 1 1-1.8l1-.4 1-.2 2.4-.4v-.4c0-.5 0-.9-.3-1.1-.4-.3-.9-.5-1.5-.5-.7 0-1.1.1-1.4.4-.3.2-.5.6-.7 1.1l-1.3-.2.6-1.3c.3-.3.7-.6 1.2-.8.5-.2 1-.3 1.8-.3.6 0 1.2.1 1.6.3.4.1.7.3.9.6.2.2.3.5.4.9v2.9l.1 2.4.4.9h-1.4l-.3-1Zm0-2.9a9 9 0 0 1-2.2.5 5 5 0 0 0-1.2.3 1.1 1.1 0 0 0-.3 1.9c.3.2.7.3 1.2.3s1 0 1.3-.3c.4-.2.7-.5 1-.9l.1-1.3v-.5Zm3.3-3.9h1.3v3.4c.4 0 .7-.1.9-.3.2-.1.4-.6.8-1.4l.6-1.2.5-.4h1.3v1h-.4c-.3 0-.5 0-.6.2l-.5 1a4 4 0 0 1-.5 1l-.8.5c.6.2 1.1.7 1.7 1.6l1.4 2.4h-1.4l-1.4-2.4-.8-1-.8-.2v3.6h-1.3v-7.8Zm6 4.6v-1.3h4.1v1.3h-4Zm4.9-4.6h6.3v1.1h-2.5v6.7h-1.3v-6.7H347v-1Zm6.9 4c0-1.5.4-2.6 1.2-3.3.6-.6 1.5-.9 2.4-.9 1 0 2 .4 2.6 1.1a4 4 0 0 1 1 2.9c0 1 0 1.8-.4 2.4-.3.5-.7 1-1.3 1.3-.6.3-1.2.5-1.9.5-1 0-2-.4-2.6-1-.7-.8-1-1.8-1-3Zm1.3 0c0 1 .2 1.7.7 2.2.4.4 1 .7 1.6.7a2 2 0 0 0 1.7-.8c.4-.5.6-1.2.6-2.2 0-1-.2-1.7-.6-2.2a2 2 0 0 0-1.7-.8 2 2 0 0 0-1.6.8c-.5.5-.7 1.2-.7 2.2Zm7.9 3.8v-1.5h1.5v1.5h-1.5Zm4.2 0v-1.5h1.5v1.5h-1.5Zm4.1 0v-1.5h1.5v1.5h-1.5Z"/><path fill="#D4F2FA" d="m145.6 287 5.7 5.6-5.6 5.7-5.7-5.6z"/><rect width="360" height="49" x="144" y="217" fill="#ACEAFA" rx="4"/><path fill="#000" d="M177.7 236v-10.7h-4.8c-1 0-1.7 0-2.2.3-.5.1-.9.5-1.2 1a3 3 0 0 0-.4 1.6c0 .8.2 1.4.7 2 .5.4 1.3.8 2.3 1-.4 0-.7.3-.9.4l-1.1 1.5-2 2.9h1.9l1.4-2.2 1-1.5.7-.7.7-.3h2.4v4.7h1.5Zm-1.5-6h-3c-.7 0-1.2 0-1.5-.2-.4-.1-.7-.3-.9-.6a2 2 0 0 1-.3-1c0-.5.2-1 .6-1.3.4-.3 1-.5 1.7-.5h3.4v3.6Zm12.9 3.2 1.3.1c-.2 1-.5 1.6-1.1 2.1a3.6 3.6 0 0 1-4.7-.2c-.7-.8-1-1.8-1-3 0-.9.1-1.6.4-2.3.3-.6.7-1 1.3-1.4a4 4 0 0 1 1.8-.5c.9 0 1.6.3 2.1.7.6.4.9 1 1 1.8l-1.2.2c-.2-.5-.4-1-.7-1.2-.3-.2-.7-.4-1.1-.4a2 2 0 0 0-1.6.7c-.4.5-.6 1.3-.6 2.3 0 1 .2 1.8.6 2.3.4.5.9.7 1.5.7.5 0 1-.2 1.3-.5.4-.3.6-.8.7-1.4Zm7.7.3 1.4.2a3 3 0 0 1-1.2 1.8c-.6.5-1.3.7-2.2.7-1.2 0-2-.4-2.7-1-.7-.8-1-1.8-1-3 0-1.3.3-2.3 1-3a3 3 0 0 1 2.6-1.2c1 0 1.9.4 2.5 1.1.7.7 1 1.7 1 3v.3h-5.8c0 .9.3 1.6.8 2 .4.5 1 .7 1.6.7a2 2 0 0 0 1.2-.4c.4-.2.6-.6.8-1.2Zm-4.3-2.1h4.3c0-.7-.2-1.2-.5-1.5a2 2 0 0 0-1.6-.8 2 2 0 0 0-1.5.6c-.4.4-.7 1-.7 1.7Zm7.4-3.2h1.3v6l3.6-6h1.4v7.8H205v-5.9l-3.6 5.9H200v-7.8Zm4.5-3h1c-.1.7-.4 1.2-.7 1.5-.4.3-1 .5-1.5.5-.7 0-1.2-.2-1.5-.5-.4-.3-.6-.8-.7-1.4h.9c0 .3.2.6.4.7.2.2.5.3.8.3.4 0 .7-.1 1-.3.1-.1.3-.4.3-.7Zm3.3 3h1.4v2.9l.6.7c.3.2.7.3 1.1.3.5 0 1.2 0 2-.4v-3.5h1.3v7.8h-1.4v-3.1l-2.2.3a3 3 0 0 1-1.6-.4l-1-1.1-.2-1.4v-2Zm13.4 6.8c-.5.5-1 .7-1.4 1a4 4 0 0 1-1.4.2 3 3 0 0 1-2-.6 2 2 0 0 1-.7-1.7 2.1 2.1 0 0 1 1-1.8l.9-.4 1.2-.2 2.3-.4v-.4c0-.5-.1-.9-.3-1.1-.4-.3-.9-.5-1.5-.5-.7 0-1.1.1-1.4.4-.3.2-.5.6-.7 1.1l-1.3-.2c.2-.5.3-1 .6-1.3.3-.3.7-.6 1.2-.8.5-.2 1-.3 1.7-.3s1.2.1 1.7.3c.4.1.7.3.9.6.2.2.3.5.4.9v2.9l.1 2.4c0 .3.2.6.4.9h-1.4l-.3-1Zm0-2.9c-.6.2-1.3.4-2.2.5a5 5 0 0 0-1.2.3 1.1 1.1 0 0 0-.7 1c0 .4.1.7.4.9.3.2.7.3 1.2.3s1 0 1.3-.3c.4-.2.7-.5 1-.9l.1-1.3v-.5Zm8.4 1 1.3.2c-.2 1-.5 1.6-1.1 2.1a3.6 3.6 0 0 1-4.7-.2c-.7-.8-1-1.8-1-3 0-.9.1-1.6.4-2.3.3-.6.7-1 1.3-1.4a4 4 0 0 1 1.8-.5c.9 0 1.6.3 2.1.7.6.4.9 1 1 1.8l-1.2.2c-.2-.5-.4-1-.7-1.2-.3-.2-.7-.4-1.1-.4a2 2 0 0 0-1.6.7c-.4.5-.6 1.3-.6 2.3 0 1 .2 1.8.6 2.3.4.5.9.7 1.5.7.5 0 1-.2 1.3-.5.4-.3.6-.8.7-1.4Zm11.9.4 1.4.2a3 3 0 0 1-1.2 1.8c-.6.5-1.4.7-2.3.7-1 0-2-.4-2.7-1a5 5 0 0 1-1-3c0-1.3.4-2.3 1-3 .7-.8 1.6-1.2 2.7-1.2 1 0 1.9.4 2.5 1.1.7.7 1 1.7 1 3v.3H237c0 .9.3 1.6.7 2 .5.5 1 .7 1.7.7a2 2 0 0 0 1.2-.4c.3-.2.6-.6.8-1.2Zm-4.3-2.1h4.3c0-.7-.2-1.2-.5-1.5a2 2 0 0 0-1.6-.8 2 2 0 0 0-1.5.6c-.5.4-.7 1-.7 1.7Zm13-6.4h1.2c0 .5-.2 1-.4 1.1-.1.2-.4.3-.6.4l-1.7.1c-1 0-1.8.1-2.2.3-.4.2-.7.6-.9 1-.2.5-.2 1-.3 1.8a4 4 0 0 1 1.2-1.1 3 3 0 0 1 1.5-.4c1 0 1.9.4 2.5 1a4 4 0 0 1 1 3 4 4 0 0 1-1.7 3.6c-.4.2-1 .4-1.9.4-.9 0-1.6-.2-2.1-.7-.5-.4-1-1-1.2-1.6a10 10 0 0 1-.4-3.4c0-2 .4-3.5 1-4.2.7-.7 1.8-1 3.3-1h1.5l.2-.3Zm0 7c0-.7-.2-1.4-.6-2-.4-.4-1-.7-1.6-.7a2 2 0 0 0-1.7.8c-.4.6-.6 1.3-.6 2.2 0 1 .2 1.6.6 2.1.5.5 1 .7 1.7.7.6 0 1.1-.3 1.5-.8.5-.6.7-1.3.7-2.2Zm2.5 7-.1-1.2h1.4l.5-.5a6.4 6.4 0 0 0 .5-1.3l-3-7.8h1.5l1.6 4.5.5 1.8.6-1.7 1.7-4.6h1.3l-3 8-.7 1.7-.8 1a2 2 0 0 1-1.1.3l-.9-.2Zm12.5-5.8 1.3.1c-.2 1-.5 1.6-1.1 2.1a3.6 3.6 0 0 1-4.7-.2c-.7-.8-1-1.8-1-3 0-.9.1-1.6.4-2.3.3-.6.7-1 1.3-1.4.6-.3 1.2-.5 1.9-.5.8 0 1.5.3 2 .7.6.4 1 1 1 1.8l-1.2.2a2 2 0 0 0-.7-1.2c-.3-.2-.7-.4-1-.4a2 2 0 0 0-1.7.7c-.4.5-.6 1.3-.6 2.3 0 1 .2 1.8.6 2.3.4.5.9.7 1.5.7s1-.2 1.3-.5c.4-.3.6-.8.7-1.4Zm2.4-5h1.3v3h1.7c1 0 2 .3 2.5.7.6.4.9 1 .9 1.7s-.3 1.2-.8 1.7c-.4.5-1.2.7-2.3.7h-3.3v-7.8Zm1.3 6.7h1.4c.8 0 1.4 0 1.8-.3.3-.2.5-.5.5-1 0-.3-.1-.6-.4-.9-.2-.2-.8-.3-1.7-.3h-1.6v2.5Zm15.8-1.7 1.3.1c-.2 1-.5 1.6-1.1 2.1a3.6 3.6 0 0 1-4.7-.2c-.7-.8-1-1.8-1-3 0-.9.1-1.6.4-2.3.3-.6.7-1 1.3-1.4.6-.3 1.2-.5 1.9-.5.8 0 1.5.3 2 .7.6.4 1 1 1 1.8l-1.2.2a2 2 0 0 0-.7-1.2c-.3-.2-.7-.4-1.1-.4a2 2 0 0 0-1.6.7c-.4.5-.6 1.3-.6 2.3 0 1 .2 1.8.6 2.3.4.5.9.7 1.5.7.5 0 1-.2 1.3-.5.4-.3.6-.8.7-1.4Zm5.9-5h6.3v1.1h-2.5v6.7H293v-6.7h-2.5v-1Zm12.7 5.3 1.4.2a3 3 0 0 1-1.2 1.8c-.6.5-1.3.7-2.3.7-1 0-2-.4-2.7-1a5 5 0 0 1-1-3c0-1.3.4-2.3 1-3 .7-.8 1.6-1.2 2.7-1.2 1 0 1.9.4 2.5 1.1.7.7 1 1.7 1 3v.3h-5.8c0 .9.3 1.6.7 2 .5.5 1 .7 1.7.7a2 2 0 0 0 1.2-.4c.3-.2.6-.6.8-1.2Zm-4.3-2.1h4.3c0-.7-.2-1.2-.5-1.5a2 2 0 0 0-1.6-.8 2 2 0 0 0-1.5.6c-.5.4-.7 1-.7 1.7Zm7.4-3.2h2l2 6.2 2.3-6.2h2v7.8h-1.4v-6.3L311 236h-1.2l-2.1-6.6v6.6h-1.3v-7.8Zm9.7 4.6v-1.3h4v1.3h-4Zm4.8-4.6h6.3v1.1h-2.5v6.7h-1.3v-6.7h-2.5v-1Zm7 4c0-1.5.3-2.6 1.1-3.3.7-.6 1.5-.9 2.5-.9s2 .4 2.6 1.1a4 4 0 0 1 1 2.9c0 1-.1 1.8-.4 2.4a4 4 0 0 1-1.3 1.3 4 4 0 0 1-4.6-.5 5 5 0 0 1-1-3Zm1.3 0c0 1 .2 1.7.6 2.2.5.4 1 .7 1.7.7a2 2 0 0 0 1.6-.8c.5-.5.7-1.2.7-2.2 0-1-.2-1.7-.7-2.2a2 2 0 0 0-1.6-.8 2 2 0 0 0-1.7.8c-.4.5-.6 1.2-.6 2.2Zm11.7-4h1.3v6l3.6-6h1.4v7.8h-1.3v-5.9l-3.6 5.9h-1.4v-7.8Zm11.8 0h6.3v1.1h-2.5v6.7h-1.3v-6.7h-2.5v-1Zm12.7 5.3 1.4.2a3 3 0 0 1-1.2 1.8c-.6.5-1.3.7-2.2.7-1.2 0-2-.4-2.7-1-.7-.8-1-1.8-1-3 0-1.3.3-2.3 1-3a3 3 0 0 1 2.6-1.2c1 0 1.9.4 2.5 1.1.7.7 1 1.7 1 3v.3H361c0 .9.3 1.6.8 2 .4.5 1 .7 1.6.7a2 2 0 0 0 1.2-.4c.4-.2.6-.6.8-1.2Zm-4.3-2.1h4.3c0-.7-.2-1.2-.5-1.5a2 2 0 0 0-1.6-.8 2 2 0 0 0-1.5.6c-.4.4-.7 1-.7 1.7Zm7.4-3.2h2l2 6.2 2.4-6.2h1.9v7.8h-1.4v-6.3L373 236h-1l-2.2-6.6v6.6h-1.3v-7.8Zm9.8 4.6v-1.3h4v1.3h-4Zm4.8-4.6h6.3v1.1h-2.5v6.7h-1.3v-6.7H383v-1Zm6.9 4c0-1.5.4-2.6 1.2-3.3.6-.6 1.5-.9 2.4-.9 1 0 2 .4 2.6 1.1a4 4 0 0 1 1 2.9c0 1-.1 1.8-.4 2.4-.3.5-.7 1-1.3 1.3-.6.3-1.2.5-1.9.5-1 0-2-.4-2.6-1-.7-.8-1-1.8-1-3Zm1.3 0c0 1 .2 1.7.7 2.2.4.4 1 .7 1.6.7a2 2 0 0 0 1.6-.8c.5-.5.7-1.2.7-2.2 0-1-.2-1.7-.7-2.2a2 2 0 0 0-1.6-.8 2 2 0 0 0-1.6.8c-.5.5-.7 1.2-.7 2.2Zm11.7-4h1.3v6l3.7-6h1.4v7.8H408v-5.9l-3.7 5.9h-1.4v-7.8Zm15.8 7.8 2.9-4-2.7-3.8h1.7l1.2 1.8.5 1 .6-1 1.3-1.8h1.6l-2.7 3.7 3 4.1h-1.7l-1.6-2.4-.4-.7-2 3.1h-1.7Zm7.7-3.9c0-1.4.4-2.5 1.2-3.2.7-.6 1.5-.9 2.5-.9s2 .4 2.6 1.1a4 4 0 0 1 1 2.9c0 1-.1 1.8-.4 2.4a4 4 0 0 1-1.3 1.3 4 4 0 0 1-4.6-.5 5 5 0 0 1-1-3Zm1.4 0c0 1 .2 1.8.6 2.3.5.4 1 .7 1.7.7a2 2 0 0 0 1.6-.8c.5-.5.7-1.2.7-2.2 0-1-.2-1.7-.7-2.2a2 2 0 0 0-1.6-.8c-.7 0-1.2.3-1.7.8-.4.5-.6 1.2-.6 2.2Zm6.7-3.9h1.3v2.9l.6.7c.3.2.7.3 1.1.3.5 0 1.2 0 2-.4v-3.5h1.3v7.8h-1.3v-3.1l-2.3.3a3 3 0 0 1-1.6-.4c-.4-.3-.7-.7-.9-1.1-.2-.4-.2-1-.2-1.4v-2Zm8.2 10.8-.1-1.2h1.4l.5-.5a6.4 6.4 0 0 0 .5-1.3l-3-7.8h1.4l1.7 4.5.5 1.8.6-1.7 1.6-4.6h1.3l-3 8c-.2.8-.5 1.4-.7 1.7l-.8 1c-.3.2-.6.3-1 .3l-.9-.2ZM169 247.2h6.1v7.8h-1.3v-6.7h-3.5v6.7H169v-7.8Zm8.1 0h1.3v6l3.7-6h1.4v7.8h-1.3v-5.9l-3.7 5.9h-1.4v-7.8Zm10.1 4.3v-1l1.2-.1c.2 0 .4-.2.5-.4.2-.2.3-.4.3-.7a1 1 0 0 0-.4-.8c-.2-.3-.5-.4-.9-.4-.7 0-1.2.5-1.5 1.3l-1.3-.2c.4-1.4 1.3-2.2 2.8-2.2a3 3 0 0 1 2 .7c.5.5.7 1 .7 1.7 0 .6-.3 1-1 1.5.5.2.8.4 1 .8.2.3.3.7.3 1.1 0 .7-.3 1.3-.8 1.7-.5.5-1.2.7-2.1.7-1.8 0-2.8-.8-3.1-2.4l1.2-.3c.1.5.4 1 .7 1.2.3.3.7.4 1.2.4.4 0 .8-.1 1-.4.4-.2.5-.5.5-1 0-.2 0-.5-.2-.7-.2-.2-.4-.4-.6-.4a5 5 0 0 0-1.5-.1Zm5.9-4.3h5.4v6.7h.8v3.3h-1V255H192v2.2h-1v-3.3h.7c.9-1.2 1.3-3.5 1.3-6.7Zm1 1.1a13 13 0 0 1-1 5.6h4v-5.6h-3ZM206 254c-.5.5-1 .7-1.4 1a4 4 0 0 1-1.5.2c-.8 0-1.5-.2-2-.6a2 2 0 0 1-.6-1.7 2.1 2.1 0 0 1 .9-1.8l1-.4 1.1-.2 2.4-.4v-.4c0-.5-.1-.9-.4-1.1-.3-.3-.8-.5-1.5-.5-.6 0-1 .1-1.4.4-.3.2-.5.6-.6 1.1l-1.3-.2c.1-.5.3-1 .6-1.3.2-.3.6-.6 1.1-.8.5-.2 1.1-.3 1.8-.3s1.2.1 1.6.3c.4.1.7.3 1 .6.1.2.3.5.3.9l.1 1.2v4.1l.4.9h-1.4l-.2-1Zm-.1-2.9a8 8 0 0 1-2.2.5 5 5 0 0 0-1.1.3 1.1 1.1 0 0 0-.7 1c0 .4.1.7.4.9.2.2.6.3 1.1.3.5 0 1 0 1.4-.3.4-.2.7-.5.9-.9l.2-1.3v-.5Zm3.4-3.9h1.3v3.3h3.6v-3.3h1.4v7.8H214v-3.4h-3.6v3.4h-1.3v-7.8Zm8.2 10.8-.2-1.2h1.5l.4-.5a6.4 6.4 0 0 0 .6-1.3l-3-7.8h1.4l1.6 4.5.6 1.8.5-1.7 1.7-4.6h1.3l-3 8-.7 1.7-.8 1c-.3.2-.6.3-1 .3l-1-.2Zm6.8-10.8h6.4v1.1H228v6.7h-1.4v-6.7h-2.5v-1Zm7.6 0h1.3v3h1.7c1 0 2 .3 2.5.7.6.4.9 1 .9 1.7s-.3 1.2-.8 1.7c-.4.5-1.2.7-2.3.7h-3.3v-7.8Zm1.3 6.7h1.4c.8 0 1.4 0 1.8-.3.3-.2.5-.5.5-1 0-.3-.1-.6-.4-.9-.2-.2-.8-.3-1.7-.3H233v2.5Zm10-6.7h6.3v1.1H247v6.7h-1.3v-6.7h-2.5v-1Zm7 4c0-1.5.3-2.6 1.1-3.3.7-.6 1.5-.9 2.5-.9s2 .4 2.6 1.1a4 4 0 0 1 1 2.9c0 1-.1 1.8-.4 2.4-.3.5-.8 1-1.4 1.3-.5.3-1.2.5-1.8.5a4 4 0 0 1-2.7-1 5 5 0 0 1-1-3Zm1.3 0c0 1 .2 1.7.6 2.2.5.4 1 .7 1.7.7a2 2 0 0 0 1.6-.8c.4-.5.6-1.2.6-2.2 0-1-.2-1.7-.6-2.2a2 2 0 0 0-1.6-.8c-.7 0-1.2.3-1.7.8-.4.5-.6 1.2-.6 2.2Zm7 .6v-1.3h4v1.3h-4Zm4.7-4.6h6.4v1.1H267v6.7h-1.4v-6.7h-2.5v-1Zm7 4c0-1.5.4-2.6 1.2-3.3.6-.6 1.4-.9 2.4-.9s2 .4 2.6 1.1a4 4 0 0 1 1 2.9c0 1-.1 1.8-.4 2.4-.3.5-.7 1-1.3 1.3-.6.3-1.2.5-1.9.5-1 0-2-.4-2.6-1-.7-.8-1-1.8-1-3Zm1.3 0c0 1 .2 1.7.7 2.2.4.4 1 .7 1.6.7a2 2 0 0 0 1.6-.8c.5-.5.7-1.2.7-2.2 0-1-.2-1.7-.7-2.2a2 2 0 0 0-1.6-.8 2 2 0 0 0-1.6.8c-.5.5-.7 1.2-.7 2.2Zm7.9 3.8v-1.5h1.5v1.5h-1.5Zm4.1 0v-1.5h1.5v1.5h-1.5Zm4.2 0v-1.5h1.5v1.5h-1.5Zm4.2 0v-1.5h1.5v1.5h-1.5Z"/><path fill="#ACEAFA" d="m145.6 225 5.7 5.6-5.6 5.7-5.7-5.6z"/><use xlink:href="#c"/><use xlink:href="#c"/><path fill="#80AAB6" d="M540.7 235H539v-6.2c-.6.6-1.3 1-2.1 1.2v-1.5c.4 0 .9-.4 1.4-.7a3 3 0 0 0 1-1.4h1.4v8.6Zm8-1.5v1.5h-5.8c0-.6.3-1.1.6-1.6.3-.6.9-1.2 1.8-2.1l1.4-1.4c.2-.3.3-.7.3-1 0-.4 0-.7-.3-.9a1 1 0 0 0-.8-.3 1 1 0 0 0-.8.4c-.2.2-.3.5-.4 1l-1.6-.2c.1-.9.4-1.5 1-2a3 3 0 0 1 1.9-.5c.8 0 1.5.2 2 .7.4.4.7 1 .7 1.7 0 .4 0 .7-.2 1l-.7 1.2-1 1a18.9 18.9 0 0 0-1.4 1.5h3.3Zm1.8-3v-1.7h1.6v1.6h-1.6Zm0 4.5v-1.6h1.6v1.6h-1.6Zm3.2-2.3 1.6-.2c0 .4.2.7.4 1 .3.2.5.3.8.3.4 0 .7-.1.9-.4.2-.3.4-.6.4-1 0-.5-.2-.8-.4-1a1 1 0 0 0-.8-.4l-.7.1.1-1.3c.5 0 .8-.1 1-.3.3-.2.4-.5.4-.8 0-.3 0-.5-.3-.7a1 1 0 0 0-.6-.3 1 1 0 0 0-.8.3c-.2.2-.3.5-.3.9l-1.5-.3c0-.5.2-1 .4-1.2a2 2 0 0 1 1-.8 3 3 0 0 1 1.2-.2c.8 0 1.5.2 2 .7.4.5.6 1 .6 1.5 0 .7-.5 1.3-1.3 1.8.5 0 1 .3 1.2.7.3.4.4.8.4 1.3 0 .8-.2 1.4-.8 2-.5.5-1.2.7-2 .7s-1.5-.2-2-.6c-.5-.5-.8-1-.9-1.8Zm10 2.3v-1.7h-3.5v-1.5l3.7-5.4h1.4v5.4h1v1.5h-1v1.7h-1.6Zm0-3.2v-3l-2 3h2Zm4.1-1.4v-1.6h1.7v1.6h-1.7Zm0 4.6v-1.6h1.7v1.6h-1.7Zm6.1-8.6c.9 0 1.5.3 2 .9.5.7.8 1.8.8 3.5 0 1.6-.3 2.8-.8 3.5-.5.6-1.1.8-2 .8-.8 0-1.5-.3-2-1-.5-.6-.8-1.7-.8-3.4 0-1.6.3-2.7.9-3.4.5-.6 1.1-1 2-1Zm0 1.3-.5.2-.4.7-.1 2.2.1 2c.1.4.2.7.4.8l.5.2c.2 0 .4 0 .6-.2l.3-.7.2-2.1c0-1 0-1.7-.2-2.1 0-.4-.2-.6-.3-.8a.8.8 0 0 0-.6-.2Zm8.1 7.3h-1.6v-6.2c-.6.6-1.3 1-2.1 1.2v-1.5c.4 0 .9-.4 1.4-.7a3 3 0 0 0 1-1.4h1.3v8.6Zm-41.3 61H539v-6.2c-.6.6-1.3 1-2.1 1.2v-1.5c.4 0 .9-.4 1.4-.7a3 3 0 0 0 1-1.4h1.4v8.6Zm8-1.5v1.5h-5.8c0-.6.3-1.1.6-1.6.3-.6.9-1.2 1.8-2.1l1.4-1.4c.2-.3.3-.7.3-1 0-.4 0-.7-.3-.9a1 1 0 0 0-.8-.3 1 1 0 0 0-.8.4c-.2.2-.3.5-.4 1l-1.6-.2c.1-.9.4-1.5 1-2a3 3 0 0 1 1.9-.5c.8 0 1.5.2 2 .7.4.4.7 1 .7 1.7 0 .4 0 .7-.2 1l-.7 1.2-1 1a18.9 18.9 0 0 0-1.4 1.5h3.3Zm1.8-3v-1.7h1.6v1.6h-1.6Zm0 4.5v-1.6h1.6v1.6h-1.6Zm3.2-2.3 1.6-.2c0 .4.2.7.4 1 .3.2.5.3.8.3.4 0 .7-.1.9-.4.2-.3.4-.6.4-1 0-.5-.2-.8-.4-1a1 1 0 0 0-.8-.4l-.7.1.1-1.3c.5 0 .8-.1 1-.3.3-.2.4-.5.4-.8 0-.3 0-.5-.3-.7a1 1 0 0 0-.6-.3 1 1 0 0 0-.8.3c-.2.2-.3.5-.3.9l-1.5-.3c0-.5.2-1 .4-1.2a2 2 0 0 1 1-.8 3 3 0 0 1 1.2-.2c.8 0 1.5.2 2 .7.4.5.6 1 .6 1.5 0 .7-.5 1.3-1.3 1.8.5 0 1 .3 1.2.7.3.4.4.8.4 1.3 0 .8-.2 1.4-.8 2-.5.5-1.2.7-2 .7s-1.5-.2-2-.6c-.5-.5-.8-1-.9-1.8Zm6.8 0h1.6c0 .3.2.6.5.8a1.1 1.1 0 0 0 1.6 0c.3-.4.4-.8.4-1.4 0-.5-.1-.9-.4-1.1-.2-.3-.5-.4-.9-.4-.5 0-.9.2-1.3.6l-1.3-.2.8-4.5h4.4v1.6h-3.1l-.3 1.4a2.5 2.5 0 0 1 3 .5c.5.6.8 1.3.8 2.1 0 .7-.2 1.4-.6 2a3 3 0 0 1-2.4 1c-.8 0-1.4-.2-1.9-.6-.5-.4-.8-1-.9-1.7Zm7.3-2.3v-1.6h1.7v1.6h-1.7Zm0 4.6v-1.6h1.7v1.6h-1.7Zm9-1.5v1.5h-5.9c.1-.6.3-1.1.6-1.6.3-.6 1-1.2 1.9-2.1l1.3-1.4c.2-.3.4-.7.4-1 0-.4-.1-.7-.3-.9a1 1 0 0 0-.9-.3 1 1 0 0 0-.8.4c-.2.2-.3.5-.3 1l-1.7-.2c.1-.9.4-1.5 1-2a3 3 0 0 1 1.9-.5c.8 0 1.5.2 2 .7.5.4.7 1 .7 1.7 0 .4 0 .7-.2 1-.1.4-.4.8-.7 1.2l-1 1a18.6 18.6 0 0 0-1.4 1.5h3.3Zm5.2 1.5h-1.6v-6.2c-.6.6-1.3 1-2.1 1.2v-1.5c.4 0 .9-.4 1.4-.7a3 3 0 0 0 1-1.4h1.3v8.6Z"/><use xlink:href="#d"/><use xlink:href="#d"/><path fill="#F3FAFC" d="M0 63h600v135H0z"/><path fill="#82ACB7" d="M110.5 104v-9h-3.2v-1.7h8.6V95h-3.2v8.9h-2.2Zm6.6-7.8h2v3.3h2l2 .1c.4.1.7.4 1 .8.3.4.5.8.5 1.3 0 .8-.3 1.4-.8 1.7a4 4 0 0 1-2.3.6H117v-7.8Zm2 6.5h2c.4 0 .8 0 1-.2.2-.2.3-.4.3-.8s-.1-.6-.4-.8a4 4 0 0 0-1.6-.2h-1.3v2Zm6.6-6.5h2v7.8h-2v-7.8Zm-57.8 39.1h8v1.8H70v2.5h3c.7 0 1.4 0 2 .2.4.2.9.6 1.3 1.1.3.6.5 1.2.5 1.9a3 3 0 0 1-.5 1.9 3 3 0 0 1-1.3 1c-.5.2-1.2.3-2 .3h-5.1v-10.7Zm2.1 8.9h2.1l1.5-.1c.2 0 .5-.2.7-.5.2-.2.3-.5.3-.8 0-.5-.2-.9-.6-1.1-.3-.2-1-.3-1.8-.3H70v2.8Zm8.5-6h2v1.2a2.9 2.9 0 0 1 2.4-1.4 3 3 0 0 1 2.3 1.1c.6.7 1 1.7 1 3s-.4 2.3-1 3a3 3 0 0 1-3.5.8 4 4 0 0 1-1.1-.9v4h-2v-10.8Zm2 3.8c0 .9.2 1.5.6 2 .3.3.8.5 1.2.5.5 0 1-.1 1.2-.5.4-.4.5-1 .5-2 0-.7-.1-1.3-.5-1.7-.3-.4-.7-.6-1.2-.6s-1 .2-1.2.6c-.4.3-.5 1-.5 1.7Zm8.8-1.4-1.9-.3a3 3 0 0 1 1.1-1.7 4 4 0 0 1 2.3-.6c1 0 1.6.2 2 .4.5.2.8.5 1 .8.2.3.3 1 .3 1.8v4l.4 1h-2a7.6 7.6 0 0 1-.3-.8l-1.1.7c-.4.2-.8.3-1.3.3-.8 0-1.4-.2-1.9-.7a2 2 0 0 1-.7-1.6c0-.5.1-.9.3-1.2a2 2 0 0 1 1-.8l1.5-.5c1-.2 1.7-.3 2-.5v-.2c0-.4 0-.7-.2-.8-.2-.2-.6-.3-1.2-.3-.3 0-.6 0-.8.2-.2.2-.4.4-.5.8Zm2.7 1.7-1.2.3-1.1.3a1 1 0 0 0-.4.8c0 .3 0 .5.3.7.2.2.5.3.8.3.4 0 .7-.1 1-.3l.6-.7v-1.4Zm3.2-4h7v1.6h-2.5v6.1h-2v-6.1h-2.5v-1.7Zm7.7 0h2.2l1.8 5.4 1.8-5.5h2.2l-2.8 7.5-.5 1.4-.5 1-.6.6-.7.3a5.5 5.5 0 0 1-2.2 0l-.2-1.6.8.1c.5 0 .9-.1 1-.4.3-.3.5-.6.6-1l-3-7.9Zm8.5 7.7 2.8-4-2.7-3.8h2.5l1.4 2.2 1.4-2.2h2.5l-2.7 3.7 2.9 4.1H117l-1.6-2.4-1.6 2.4h-2.4Zm10.9-5.4-1.9-.3a3 3 0 0 1 1-1.7 4 4 0 0 1 2.4-.6c.9 0 1.6.2 2 .4.5.2.8.5 1 .8l.2 1.8v2.4l.1 1.6c0 .3.2.6.4 1h-2a7.8 7.8 0 0 1-.3-.8l-1.1.7a3 3 0 0 1-1.3.3c-.8 0-1.5-.2-2-.7-.4-.4-.6-1-.6-1.6 0-.5 0-.9.3-1.2.2-.3.5-.6.9-.8l1.6-.5 2-.5v-.2c0-.4 0-.7-.3-.8-.2-.2-.5-.3-1-.3-.4 0-.7 0-1 .2l-.4.8Zm2.7 1.7-1.2.3-1.2.3c-.2.2-.4.5-.4.8 0 .3.2.5.4.7.2.2.5.3.8.3.4 0 .7-.1 1-.3.3-.2.5-.5.5-.7l.1-1v-.4Zm33 49.7v-2h2.1v2h-2Zm4.3 0v-2h2v2h-2Zm4.1 0v-2h2v2h-2Zm11.6 0v-3.3c-.3 0-.5 0-.6.2l-.5.9-1 2.2h-2.2l1-2.1c.6-1.1 1.2-1.7 1.8-1.9a2 2 0 0 1-1-1.3l-.5-1-1-.1v-1.4h.8c.5 0 .8 0 1.2.3.3.2.6.7.9 1.5l.5 1.1c.1.2.3.3.6.3v-3.2h2v3.2c.3 0 .5 0 .6-.3.2-.1.3-.5.6-1.1.2-.8.5-1.3.8-1.5.4-.2.8-.3 1.3-.3h.8v1.4l-1 .1c-.2.1-.4.5-.6 1-.2.7-.5 1.1-1 1.3.6.2 1.2.8 1.8 1.9l1 2.1h-2.2l-1-2.2-.4-.9a1 1 0 0 0-.7-.2v3.3h-2Zm13.8 0H186v2h-1.7v-3.7h.8c.4-.4.7-1 .9-1.8.2-.8.4-2.3.4-4.3h6.3v6.1h.8v3.8h-1.7V192Zm-1.2-1.7V186h-2.4a9.4 9.4 0 0 1-1 4.4h3.4Zm8.8-.8 2 .4a3 3 0 0 1-1.2 1.7c-.5.4-1.2.6-2.1.6-1.3 0-2.3-.5-3-1.3a5 5 0 0 1 .2-5.7c.7-.8 1.6-1.2 2.6-1.2 1.2 0 2 .4 2.7 1.2.7.8 1 2 1 3.5h-5.2c0 .6.2 1 .5 1.4.4.4.8.5 1.2.5.3 0 .6 0 .8-.2.3-.2.4-.5.5-.9Zm.2-2c0-.7-.2-1.1-.5-1.4-.3-.3-.7-.5-1-.5-.5 0-.9.2-1.2.5-.3.3-.4.8-.4 1.3h3Zm2.6-3.3h7v1.7h-2.5v6.1h-2v-6.1h-2.5v-1.7Zm7 5.7h2.1v1.5l-.1 1.4a2 2 0 0 1-.6 1 3 3 0 0 1-1.1.6l-.4-.9c.4 0 .7-.3.9-.5l.2-1h-1v-2Zm8.4-5.7h6.9v7.8h-2v-6.1h-2.9v6.1h-2v-7.8Zm8.6 3.8c0-.7.2-1.3.5-2a4 4 0 0 1 1.5-1.4c.6-.4 1.3-.6 2-.6a3.9 3.9 0 0 1 4 4 4 4 0 0 1-1 3 4 4 0 0 1-3 1.2c-.6 0-1.3-.2-2-.5a4 4 0 0 1-1.5-1.4c-.3-.6-.5-1.4-.5-2.3Zm2.2.1c0 .8.1 1.4.5 1.8.4.4.8.6 1.4.6.5 0 1-.2 1.3-.6.4-.4.6-1 .6-1.8s-.2-1.4-.6-1.8a1.7 1.7 0 0 0-2.7 0c-.4.4-.5 1-.5 1.8Zm7.4-3.9h2v3.2c.4 0 .6-.1.8-.3l.5-1.1c.3-.8.5-1.3.9-1.5.3-.2.7-.3 1.2-.3h.8v1.4l-1 .1c-.2.1-.3.5-.5 1-.3.7-.6 1.1-1 1.3.6.2 1.1.8 1.6 1.7v.2l1.2 2.1h-2.2l-1-2.2-.6-1-.6-.1v3.3h-2v-7.8Zm9.1 2.4-1.8-.3a3 3 0 0 1 1-1.7 4 4 0 0 1 2.3-.6c1 0 1.6.2 2 .4.5.2.9.5 1 .8.2.3.3 1 .3 1.8v4l.5 1h-2a7.4 7.4 0 0 1-.3-.8l-1.2.7c-.4.2-.8.3-1.3.3-.8 0-1.4-.2-1.8-.7a2 2 0 0 1-.7-1.6c0-.5 0-.9.3-1.2.2-.3.5-.6.9-.8.3-.2.9-.3 1.6-.5l2-.5v-.2c0-.4-.1-.7-.3-.8-.2-.2-.6-.3-1.1-.3-.4 0-.7 0-.9.2l-.5.8Zm2.8 1.7-1.3.3-1 .3c-.3.2-.5.5-.5.8 0 .3.1.5.3.7.3.2.5.3.9.3a2 2 0 0 0 1-.3c.3-.2.4-.5.5-.7l.1-1v-.4Zm7.3-4h7v1.6h-2.4v6.1h-2.1v-6.1H255v-1.7Zm8.3 0h2v3.2h2.1l1.9.1c.4.1.8.4 1 .8.4.4.5.8.5 1.3 0 .8-.3 1.4-.8 1.7a4 4 0 0 1-2.3.6h-4.4v-7.8Zm2 6.4h2c.5 0 .8 0 1-.2.3-.2.4-.4.4-.8s-.2-.6-.5-.8a4 4 0 0 0-1.5-.2h-1.3v2Zm6.7-6.5h2v7.8h-2v-7.8Zm8.2 0h6.9v7.8h-2v-6.1h-2.8v6.1h-2.1v-7.8Zm9 0h2v5l3.2-5h2v7.8h-2v-5l-3.1 5h-2v-7.8Zm11.5 4.6v-1.3l.7-.1c.2 0 .4-.2.5-.3l.2-.7c0-.2 0-.4-.3-.6-.1-.2-.4-.3-.8-.3l-.7.1c-.2.2-.4.4-.6.9l-1.7-.4c.2-.7.5-1.2 1.1-1.5.6-.4 1.2-.6 2-.6 1 0 1.6.3 2.2.7.5.4.7 1 .7 1.6 0 .4 0 .8-.3 1-.2.3-.6.5-1 .8.5.1 1 .4 1.2.7.3.3.5.7.5 1.2 0 .6-.3 1-.9 1.5a4 4 0 0 1-2.4.7c-1.9 0-3-.7-3.4-2.2l1.9-.3c.3.7.8 1.1 1.5 1.1l.9-.3c.2-.2.3-.4.3-.7 0-.3-.1-.6-.3-.7-.3-.2-.6-.3-1-.3h-.3Zm11.8 3.2h-6v2H305v-3.7h.8c.4-.4.7-1 1-1.8.1-.8.3-2.3.3-4.3h6.3v6.1h.8v3.8h-1.6V192Zm-1.2-1.7V186h-2.5c-.1 2.2-.4 3.6-1 4.4h3.5Zm5.8-3.7-1.9-.3a3 3 0 0 1 1.1-1.7 4 4 0 0 1 2.3-.6c.9 0 1.6.2 2 .4.5.2.8.5 1 .8.2.3.3 1 .3 1.8v4l.4 1h-2a7.9 7.9 0 0 1-.3-.8l-1.1.7a3 3 0 0 1-1.3.3c-.8 0-1.4-.2-2-.7-.4-.4-.6-1-.6-1.6 0-.5.1-.9.3-1.2.2-.3.5-.6.9-.8l1.6-.5c1-.2 1.7-.3 2-.5v-.2c0-.4 0-.7-.3-.8-.1-.2-.5-.3-1-.3-.4 0-.7 0-1 .2l-.4.8Zm2.7 1.7-1.2.3-1.1.3a1 1 0 0 0-.4.8c0 .3 0 .5.3.7.2.2.5.3.8.3.4 0 .7-.1 1-.3l.6-.7v-1.4Zm4-4h2v2.8h3v-2.9h2v7.8h-2v-3.3h-3v3.3h-2v-7.8Zm13.7 5.2 2 .4c-.2.7-.7 1.3-1.2 1.7-.6.4-1.3.6-2.2.6-1.3 0-2.3-.5-3-1.3a5 5 0 0 1-.7-2.7c0-1.3.3-2.3 1-3a3 3 0 0 1 2.5-1.2c1.2 0 2.1.4 2.8 1.2.6.8 1 2 1 3.5h-5.2c0 .6.2 1 .5 1.4.3.4.7.5 1.2.5.3 0 .6 0 .8-.2.2-.2.4-.5.5-.9Zm0-2c0-.7 0-1.1-.4-1.4-.3-.3-.6-.5-1-.5-.5 0-.9.2-1.2.5-.3.3-.4.8-.4 1.3h3Zm3.8-3.3h1.9v6.1h2.3v-6h2v6h2.3v-6h2v7.7h-10.5v-7.8Zm12.6 0h2v3.3h2l2 .1c.4.1.8.4 1 .8.3.4.5.8.5 1.3 0 .8-.3 1.4-.8 1.7a4 4 0 0 1-2.3.6h-4.4v-7.8Zm2 6.5h2c.5 0 1-.1 1.1-.3.2-.2.3-.4.3-.7 0-.4-.2-.6-.5-.8l-1.5-.2h-1.4v2Zm11-6.5h2.2v2.9l.6.5.9.2c.4 0 .8 0 1.2-.3v-3.3h2v7.8h-2v-3.1l-1.8.3c-.6 0-1.2-.1-1.7-.4-.5-.3-.9-.6-1-1-.2-.5-.3-1-.3-1.7v-1.9Zm8.1 0h7v1.7h-2.4v6.1h-2v-6.1H375v-1.7Zm7.6 3.8c0-.7.2-1.3.5-2a4.2 4.2 0 0 1 3.5-2 3.9 3.9 0 0 1 4 4 4 4 0 0 1-1.1 3c-.8.8-1.7 1.2-2.9 1.2-.7 0-1.4-.2-2-.5-.7-.3-1.1-.8-1.5-1.4-.3-.6-.5-1.4-.5-2.3Zm2.1.1c0 .8.2 1.4.6 1.8.3.4.8.6 1.3.6.6 0 1-.2 1.4-.6.3-.4.5-1 .5-1.8s-.2-1.4-.5-1.8c-.4-.4-.8-.6-1.4-.6-.5 0-1 .2-1.3.6-.4.4-.6 1-.6 1.8Zm7.3 1v-2h4v2h-4Zm4.3-4.9h7v1.7H401v6.1h-2v-6.1h-2.6v-1.7Zm7.6 3.8c0-.7.2-1.3.5-2 .4-.6.8-1.1 1.5-1.4.6-.4 1.3-.6 2-.6a3.9 3.9 0 0 1 4 4 4 4 0 0 1-1 3 4 4 0 0 1-3 1.2 5 5 0 0 1-2-.5 4 4 0 0 1-1.5-1.4c-.3-.6-.5-1.4-.5-2.3Zm2.1.1c0 .8.2 1.4.6 1.8a1.8 1.8 0 0 0 2.7 0c.4-.4.5-1 .5-1.8s-.1-1.4-.5-1.8c-.4-.4-.8-.6-1.4-.6-.5 0-1 .2-1.3.6-.4.4-.6 1-.6 1.8Zm7.6 3.9v-2h2v2h-2Zm4.1 0v-2h2.1v2h-2Zm4.2 0v-2h2v2h-2Z"/><rect width="360" height="30" x="144" y="129" fill="#D4F2FA" rx="4"/><path fill="#000" d="M176.8 148h-1.4v-4.3c-1.3.4-2.4.7-3.3.7a4 4 0 0 1-2-.5c-.6-.4-1-.8-1.2-1.4-.2-.5-.3-1.2-.3-2v-3.2h1.5v3c0 1.2.2 2 .6 2.3.4.4 1 .6 1.5.6 1 0 2-.3 3.2-.7v-5.2h1.4V148Zm7.5-2.5 1.4.2a3 3 0 0 1-1.2 1.8c-.6.5-1.3.7-2.2.7-1.2 0-2-.4-2.8-1a5 5 0 0 1-1-3c0-1.3.4-2.3 1-3 .7-.8 1.6-1.2 2.7-1.2 1 0 1.9.4 2.5 1.1.7.7 1 1.7 1 3v.3H180c0 .9.3 1.6.7 2 .5.5 1 .7 1.7.7a2 2 0 0 0 1.2-.4c.3-.2.6-.6.8-1.2Zm-4.3-2.1h4.3c0-.7-.2-1.2-.5-1.5a2 2 0 0 0-1.6-.8 2 2 0 0 0-1.5.6c-.4.4-.7 1-.7 1.7Zm11.5-3.2h1.3v3.3h3.7v-3.3h1.3v7.8h-1.3v-3.4h-3.7v3.4h-1.3v-7.8ZM205 147c-.5.5-1 .7-1.4 1a4 4 0 0 1-1.5.2c-.8 0-1.5-.2-2-.6a2 2 0 0 1-.6-1.7 2.1 2.1 0 0 1 .9-1.8l1-.4 1.1-.2 2.4-.4v-.4c0-.5-.1-.9-.4-1.1-.3-.3-.8-.5-1.5-.5-.6 0-1 .1-1.4.4-.3.2-.5.6-.6 1.1l-1.3-.2c.1-.5.3-1 .6-1.3.2-.3.6-.6 1.1-.8.5-.2 1.1-.3 1.8-.3s1.2.1 1.6.3c.4.1.7.3 1 .6.1.2.3.5.3.9l.1 1.2v4.1l.4.9h-1.4l-.2-1Zm-.1-2.9a8 8 0 0 1-2.2.5 5 5 0 0 0-1.1.3 1.1 1.1 0 0 0-.7 1c0 .4.1.7.4.9.2.2.6.3 1.1.3.5 0 1 0 1.4-.3.4-.2.7-.5.9-.9l.2-1.3v-.5Zm2.5 3.9 2.8-4-2.6-3.8h1.6l1.2 1.8.6 1 .6-1 1.3-1.8h1.6l-2.7 3.7 2.9 4.1H213l-1.6-2.4-.4-.7-2 3.1h-1.6Zm8.3 3-.1-1.2h1.4l.4-.5a6.4 6.4 0 0 0 .6-1.3l-3-7.8h1.4l1.7 4.5.5 1.8c.2-.6.3-1.2.6-1.7l1.6-4.6h1.3l-3 8c-.2.8-.5 1.4-.7 1.7l-.8 1c-.3.2-.6.3-1 .3l-.9-.2Zm7.6-10.8h1.3v6l3.6-6h1.5v7.8h-1.4v-5.9l-3.6 5.9h-1.4v-7.8Zm4.5-3h1c-.1.7-.4 1.2-.7 1.5-.4.3-.9.5-1.5.5s-1.1-.2-1.5-.5c-.4-.3-.6-.8-.7-1.4h1c0 .3.1.6.3.7.2.2.5.3.8.3.4 0 .7-.1 1-.3.1-.1.3-.4.3-.7Zm6.3 8.2v-.4c0-.6 0-1 .2-1.4l.5-.8 1-1 .9-1 .2-.7c0-.5-.2-1-.6-1.3a2 2 0 0 0-1.5-.6 2 2 0 0 0-1.4.5c-.4.3-.6.9-.7 1.6l-1.4-.1c.1-1 .5-1.8 1-2.3.7-.6 1.5-.8 2.5-.8s1.9.3 2.5.8a2.7 2.7 0 0 1 .6 3.4 4 4 0 0 1-1.3 1.4l-.8.9-.3.6-.1 1.2H234Zm0 2.6v-1.5h1.4v1.5H234Z"/><path fill="#D4F2FA" d="m145.6 138 5.7 5.6-5.6 5.7-5.7-5.6z"/><g clip-path="url(#e)"><rect width="360" height="30" x="144" y="86" fill="#ACEAFA" rx="4"/><path fill="#000" d="M169.2 105V94.3h7.8v1.2h-6.4v3.3h6v1.3h-6v3.6h6.6v1.3h-8Zm15.5-11h1.2c-.1.5-.2 1-.4 1.1l-.7.4-1.6.1a6 6 0 0 0-2.3.3c-.4.2-.6.6-.8 1-.2.5-.3 1-.3 1.8.3-.5.7-.9 1.2-1.1a3 3 0 0 1 1.5-.4c1 0 1.8.4 2.5 1a4 4 0 0 1 1 3 5 5 0 0 1-.5 2.2 4 4 0 0 1-1.2 1.3c-.5.3-1 .5-1.9.5-1 0-1.6-.2-2.1-.7-.6-.4-1-1-1.2-1.6a10 10 0 0 1-.4-3.4c0-2 .3-3.5 1-4.2.7-.7 1.8-1 3.2-1h1.6l.2-.3Zm0 7c0-.7-.3-1.4-.7-2a2 2 0 0 0-1.6-.7 2 2 0 0 0-1.7.8c-.4.6-.5 1.3-.5 2.2 0 1 .2 1.6.6 2.1.4.5 1 .7 1.6.7a2 2 0 0 0 1.6-.8c.4-.6.6-1.3.6-2.2Zm7.6 3c-.5.5-1 .7-1.4 1a4 4 0 0 1-1.4.2c-.9 0-1.6-.2-2-.6a2 2 0 0 1-.7-1.7 2.1 2.1 0 0 1 1-1.8l.9-.4 1.2-.2 2.3-.4v-.4c0-.5-.1-.9-.4-1.1-.3-.3-.8-.5-1.5-.5-.6 0-1 .1-1.3.4-.3.2-.5.6-.7 1.1l-1.3-.2c.1-.5.3-1 .6-1.3.3-.3.7-.6 1.2-.8.5-.2 1-.3 1.7-.3s1.2.1 1.6.3c.5.1.8.3 1 .6.2.2.3.5.4.9v2.9l.1 2.4c0 .3.2.6.4.9h-1.4c-.2-.3-.2-.6-.3-1Zm0-2.9c-.6.2-1.3.4-2.2.5a5 5 0 0 0-1.2.3 1.1 1.1 0 0 0-.3 1.9c.3.2.7.3 1.2.3s1 0 1.3-.3c.4-.2.7-.5.9-.9l.2-1.3v-.5Zm2.2-3.9h6.4v1.1h-2.5v6.7H197v-6.7h-2.5v-1Zm7.6 0h1.3v3h1.7c1 0 2 .3 2.5.7.6.4.9 1 .9 1.7s-.3 1.2-.8 1.7c-.4.5-1.2.7-2.3.7h-3.3v-7.8Zm1.3 6.7h1.4c.8 0 1.4 0 1.8-.3.3-.2.5-.5.5-1 0-.3-.1-.6-.4-.9-.2-.2-.8-.3-1.7-.3h-1.6v2.5Z"/></g><path fill="#ACEAFA" d="m145.6 94 5.7 5.6-5.6 5.7-5.7-5.6z"/><use xlink:href="#f"/><use xlink:href="#f"/><path fill="#80AAB6" d="M540.7 104H539v-6.2c-.6.6-1.3 1-2.1 1.2v-1.5c.4 0 .9-.4 1.4-.7a3 3 0 0 0 1-1.4h1.4v8.6Zm8-1.5v1.5h-5.8c0-.6.3-1.1.6-1.6.3-.6.9-1.2 1.8-2.1l1.4-1.4c.2-.3.3-.7.3-1 0-.4 0-.7-.3-.9a1 1 0 0 0-.8-.3 1 1 0 0 0-.8.4c-.2.2-.3.5-.4 1l-1.6-.2c.1-.9.4-1.5 1-2a3 3 0 0 1 1.9-.5c.8 0 1.5.2 2 .7.4.4.7 1 .7 1.7 0 .4 0 .7-.2 1l-.7 1.2-1 1a18.9 18.9 0 0 0-1.4 1.5h3.3Zm1.8-3v-1.7h1.6v1.6h-1.6Zm0 4.5v-1.6h1.6v1.6h-1.6Zm3.2-2.3 1.6-.2c0 .4.2.7.4 1 .3.2.5.3.8.3.4 0 .7-.1.9-.4.2-.3.4-.6.4-1 0-.5-.2-.8-.4-1a1 1 0 0 0-.8-.4l-.7.1.1-1.3c.5 0 .8-.1 1-.3.3-.2.4-.5.4-.8 0-.3 0-.5-.3-.7a1 1 0 0 0-.6-.3 1 1 0 0 0-.8.3c-.2.2-.3.5-.3.9l-1.5-.3c0-.5.2-1 .4-1.2a2 2 0 0 1 1-.8 3 3 0 0 1 1.2-.2c.8 0 1.5.2 2 .7.4.5.6 1 .6 1.5 0 .7-.5 1.3-1.3 1.8.5 0 1 .3 1.2.7.3.4.4.8.4 1.3 0 .8-.2 1.4-.8 2-.5.5-1.2.7-2 .7s-1.5-.2-2-.6c-.5-.5-.8-1-.9-1.8Zm12.3.8v1.5h-5.7c0-.6.2-1.1.5-1.6.3-.6 1-1.2 1.9-2.1l1.3-1.4c.3-.3.4-.7.4-1 0-.4-.1-.7-.3-.9a1 1 0 0 0-.8-.3c-.4 0-.6.1-.9.4-.2.2-.3.5-.3 1l-1.6-.2c0-.9.4-1.5.9-2a3 3 0 0 1 2-.5c.8 0 1.4.2 2 .7.4.4.6 1 .6 1.7 0 .4 0 .7-.2 1l-.6 1.2-1.1 1a18 18 0 0 0-1.3 1.5h3.2Zm1.8-3v-1.7h1.7v1.6h-1.7Zm0 4.5v-1.6h1.7v1.6h-1.7Zm7.6 0h-1.7v-6.2c-.6.6-1.3 1-2.1 1.2v-1.5c.4 0 .9-.4 1.4-.7a3 3 0 0 0 1-1.4h1.4v8.6Zm8-1.5v1.5h-5.8c0-.6.3-1.1.6-1.6.3-.6 1-1.2 1.8-2.1l1.4-1.4c.2-.3.3-.7.3-1 0-.4 0-.7-.3-.9a1 1 0 0 0-.8-.3 1 1 0 0 0-.8.4c-.2.2-.3.5-.3 1l-1.7-.2c.1-.9.4-1.5 1-2a3 3 0 0 1 1.9-.5c.8 0 1.5.2 2 .7.4.4.7 1 .7 1.7 0 .4 0 .7-.2 1l-.7 1.2-1 1a18.9 18.9 0 0 0-1.4 1.5h3.3ZM540.7 146H539v-6.2c-.6.6-1.3 1-2.1 1.2v-1.5c.4 0 .9-.4 1.4-.7a3 3 0 0 0 1-1.4h1.4v8.6Zm8-1.5v1.5h-5.8c0-.6.3-1.1.6-1.6.3-.6.9-1.2 1.8-2.1l1.4-1.4c.2-.3.3-.7.3-1 0-.4 0-.7-.3-.9a1 1 0 0 0-.8-.3 1 1 0 0 0-.8.4c-.2.2-.3.5-.4 1l-1.6-.2c.1-.9.4-1.5 1-2a3 3 0 0 1 1.9-.5c.8 0 1.5.2 2 .7.4.4.7 1 .7 1.7 0 .4 0 .7-.2 1l-.7 1.2-1 1a18.9 18.9 0 0 0-1.4 1.5h3.3Zm1.8-3v-1.7h1.6v1.6h-1.6Zm0 4.5v-1.6h1.6v1.6h-1.6Zm3.2-2.3 1.6-.2c0 .4.2.7.4 1 .3.2.5.3.8.3.4 0 .7-.1.9-.4.2-.3.4-.6.4-1 0-.5-.2-.8-.4-1a1 1 0 0 0-.8-.4l-.7.1.1-1.3c.5 0 .8-.1 1-.3.3-.2.4-.5.4-.8 0-.3 0-.5-.3-.7a1 1 0 0 0-.6-.3 1 1 0 0 0-.8.3c-.2.2-.3.5-.3.9l-1.5-.3c0-.5.2-1 .4-1.2a2 2 0 0 1 1-.8 3 3 0 0 1 1.2-.2c.8 0 1.5.2 2 .7.4.5.6 1 .6 1.5 0 .7-.5 1.3-1.3 1.8.5 0 1 .3 1.2.7.3.4.4.8.4 1.3 0 .8-.2 1.4-.8 2-.5.5-1.2.7-2 .7s-1.5-.2-2-.6c-.5-.5-.8-1-.9-1.8Zm12.3.8v1.5h-5.7c0-.6.2-1.1.5-1.6.3-.6 1-1.2 1.9-2.1l1.3-1.4c.3-.3.4-.7.4-1 0-.4-.1-.7-.3-.9a1 1 0 0 0-.8-.3c-.4 0-.6.1-.9.4-.2.2-.3.5-.3 1l-1.6-.2c0-.9.4-1.5.9-2a3 3 0 0 1 2-.5c.8 0 1.4.2 2 .7.4.4.6 1 .6 1.7 0 .4 0 .7-.2 1l-.6 1.2-1.1 1a18 18 0 0 0-1.3 1.5h3.2Zm1.8-3v-1.7h1.7v1.6h-1.7Zm0 4.5v-1.6h1.7v1.6h-1.7Zm7.6 0h-1.7v-6.2c-.6.6-1.3 1-2.1 1.2v-1.5c.4 0 .9-.4 1.4-.7a3 3 0 0 0 1-1.4h1.4v8.6Zm2.5-2.2 1.6-.2c0 .4.2.7.4 1a1.1 1.1 0 0 0 1.7-.2c.2-.3.3-.7.3-1.3 0-.5 0-.9-.3-1.1-.3-.3-.6-.4-1-.4s-.8.2-1.2.6l-1.3-.2.8-4.5h4.4v1.6H580l-.2 1.4a2.5 2.5 0 0 1 3 .5c.5.6.7 1.3.7 2.1 0 .7-.2 1.4-.6 2-.5.7-1.3 1-2.3 1-.8 0-1.5-.2-2-.6-.5-.4-.7-1-.8-1.7Z"/><use xlink:href="#g"/><use xlink:href="#g"/><defs><clipPath id="e"><rect width="360" height="30" x="144" y="86" fill="#fff" rx="4"/></clipPath></defs></svg>